<svg width="28" height="23" viewBox="0 0 28 23" fill="none" xmlns="http://www.w3.org/2000/svg">
<path d="M2.125 9.65259C1.29657 9.65259 0.625 10.3242 0.625 11.1526C0.625 11.981 1.29657 12.6526 2.125 12.6526V9.65259ZM26.9355 12.2132C27.5213 11.6275 27.5213 10.6777 26.9355 10.0919L17.3896 0.545986C16.8038 -0.0398006 15.8541 -0.0398006 15.2683 0.545986C14.6825 1.13177 14.6825 2.08152 15.2683 2.66731L23.7536 11.1526L15.2683 19.6379C14.6825 20.2237 14.6825 21.1734 15.2683 21.7592C15.8541 22.345 16.8038 22.345 17.3896 21.7592L26.9355 12.2132ZM2.125 11.1526V12.6526H25.8749V11.1526V9.65259H2.125V11.1526Z" fill="white"/>
</svg>
