<svg xmlns="http://www.w3.org/2000/svg" viewBox="0 0 513.67 224.68"><defs><style>.cls-1{fill:none;}.cls-2{fill:#fff;}</style></defs><title>資產 7</title><g id="圖層_2" data-name="圖層 2"><g id="圖層_1-2" data-name="圖層 1"><rect class="cls-1" width="513.67" height="224.68"/><path class="cls-2" d="M120,92.9a31.09,31.09,0,0,0-3.38-14.16,28.41,28.41,0,0,0-8.82-10,30.63,30.63,0,0,0-18.48-6.05H73c-3.94,0-5.53.37-7.39,1.92-2.78,2.33-2.82,4.88-2.83,8.3v85.79c0,1.39,0,2,.65,2.61s1.54.61,2.93.6c0,0,7.26,0,7.75,0a2.16,2.16,0,0,0,1.26-.41,2.31,2.31,0,0,0,.85-1.7c0-.37,0-35.72,0-35.72a1,1,0,0,1,.33-.76,1.26,1.26,0,0,1,.83-.37h7.87c6.44,0,16.46-.3,24.2-7.32S120,99.88,120,92.9Zm-22.44,16c-4,2.25-8.84,1.63-12.66,1.62l-7.6.15a1,1,0,0,1-.78-.27,1.2,1.2,0,0,1-.37-.88V79.59c0-1.46-.1-2.25.64-2.92s.91-.62,2.35-.62h5.75c7.16,0,12-.75,16.25,5,3.34,4.5,3.43,9.68,3.43,12.7C104.63,102.56,101.6,106.6,97.6,108.86Z"/><path class="cls-2" d="M150.11,65.94c0-1.41,0-2-.67-2.69s-1.5-.57-2.9-.56h-7.41a2.71,2.71,0,0,0-1.23.17,2.27,2.27,0,0,0-1,.94,5.9,5.9,0,0,0-.21,2.13v92.75a3.34,3.34,0,0,0,.47,2.38c.73.94,1.85.85,2.89.85h6.44c1.4,0,2.32.07,2.88-.53s.69-.88.69-2.7Z"/><path class="cls-2" d="M309.6,64.56a2,2,0,0,0-.63-1.28c-.8-.76-1.91-.58-2.92-.58h-6.27c-1.08,0-2.23-.15-3,.74a3.31,3.31,0,0,0-.57,2.39s.07,67.39,0,67.64a.69.69,0,0,1-.67.37.67.67,0,0,1-.31-.1,1.27,1.27,0,0,1-.32-.55C294.76,133,265.54,69,265.08,68a12.3,12.3,0,0,0-1.54-2.59,7,7,0,0,0-3.64-2.33,10.28,10.28,0,0,0-2.76-.39h-9.82c-1.4,0-2.14-.16-2.95.68s-.6,1.16-.6,2.57v92.74s-.12,2.25,1,2.87a5.18,5.18,0,0,0,2.56.36h6.27c1,0,2.24.14,3-.66a3.62,3.62,0,0,0,.58-2.58V83.27a1.2,1.2,0,0,1,.07-.44c0-.12.11-.34.56-.35a.82.82,0,0,1,.65.55c3.93,8.51,33.1,72.92,34,74.72a8.66,8.66,0,0,0,2,2.42,8.05,8.05,0,0,0,4.75,1.75H306c1.4,0,2.22.06,2.85-.53s.73-1.31.73-2.72C309.6,158.68,309.64,65,309.6,64.56Z"/><path class="cls-2" d="M340.07,78.29V103a1.33,1.33,0,0,0,0,.4,1.1,1.1,0,0,0,.17.32,1.2,1.2,0,0,0,.41.33,1.1,1.1,0,0,0,.54.09h30.2a2,2,0,0,1,1.45.56c.75.76.68,1.27.68,2.66v8.07a2.19,2.19,0,0,1-.63,1.51,2.29,2.29,0,0,1-1.49.62h-30.2a1.25,1.25,0,0,0-.86.23,1.28,1.28,0,0,0-.3.92v27.7a2.1,2.1,0,0,0,.7,1.59l.09.07a2.16,2.16,0,0,0,.87.43,2.31,2.31,0,0,0,.46,0h34a2.41,2.41,0,0,1,1.46.57,2,2,0,0,1,.67,1.54v9.16a2.2,2.2,0,0,1-.68,1.56,2.1,2.1,0,0,1-1.44.56h-44a7.76,7.76,0,0,1-7.88-7.82V72.89c0-3.29,0-5.36,2.26-7.77,2.67-2.85,6.2-2.41,10.19-2.41h39.67a2.25,2.25,0,0,1,1.3.63,2.16,2.16,0,0,1,.55,1.12,6.27,6.27,0,0,1,.05,1.5v6.81c0,1.4.08,2-.68,2.71s-1.49.59-2.89.59H342.19a2.12,2.12,0,0,0-1.85,1.05A2.27,2.27,0,0,0,340.07,78.29Z"/><path class="cls-2" d="M427.4,77.2a1.07,1.07,0,0,1,.17-.63,1.16,1.16,0,0,1,.44-.38,1.22,1.22,0,0,1,.54-.11h20.24A2.11,2.11,0,0,0,450.91,74V64.87a2,2,0,0,0-.72-1.59,2.31,2.31,0,0,0-1.4-.56H392.9a2.09,2.09,0,0,0-1.48.6,2.17,2.17,0,0,0-.64,1.52V74a2.06,2.06,0,0,0,.66,1.53,2,2,0,0,0,1.46.59h20a1,1,0,0,1,.84.31,1,1,0,0,1,.31.83v82.59a2.09,2.09,0,0,0,2,2.13h9.26a2,2,0,0,0,1.41-.54,2.1,2.1,0,0,0,.73-1.58Z"/><path class="cls-2" d="M205.93,111.51a3.69,3.69,0,0,1,0-3.21c8.68-17.88,17.25-35.55,20.6-42.47a2.13,2.13,0,0,0-1.93-3.06h-7.39a6.45,6.45,0,0,0-5.8,3.63L198.59,92.82a1,1,0,0,1-1.73,0L184.05,66.4a6.44,6.44,0,0,0-5.8-3.64h-7.42a2.12,2.12,0,0,0-1.92,3c3.29,6.8,11.53,23.78,20.6,42.49a3.71,3.71,0,0,1,0,3.22l-23,47.33a2.13,2.13,0,0,0,1.92,3.07h7.43a6.35,6.35,0,0,0,5.74-3.57L196.86,127a1,1,0,0,1,1.73,0l15.2,31.34a6.34,6.34,0,0,0,5.74,3.58H227a2.14,2.14,0,0,0,1.92-3.08Z"/></g></g></svg>