<svg id="svg-tw" version="1.2" xmlns="http://www.w3.org/2000/svg" viewBox="0 0 1080 1920" width="480" height="853">
	<g class="all">
		<g class="inner">
			<path data-area="ttt" class="taitung ttt" d="m809 1209.2c-3.5 9.7-14.5 23.7-26.7 43.4c-12.7 19.3-26.7 44.3-34.6 58.3c-7.9 14.5-9.6 18-12.2 19.7c-2.7 1.8-6.2 1.8-11.4 1.8c-5.3 0-12.3 0-15.8 2.6c-3.5 2.6-3.5 7.9-2.6 12.3c0.9 4.4 2.6 7.4 2.6 11.4c0 3.9-1.7 7.4-15.7 24.1c-14 17.1-40.7 46.9-58.2 68.3c-18 21.5-26.7 33.8-31.1 43.4c-4.4 10.1-4.4 17.1-7 26.8c-2.6 9.6-7.9 22.3-9.6 31.1c-1.8 8.7 0 14-0.9 21.9c-0.8 8.3-4.3 18.8-8.7 26.7c-4.4 8.3-9.6 13.6-12.3 21.5c-2.6 7.8-2.6 18.8-3.9 29.3c-1.3 10.1-3.5 20.2 0.9 35c-2.2-0.4-4.4-0.4-6.1-0.4c-9.2 0-14.5 0-19.3-1.7c-3.1-0.9-6.1-2.6-8.8-4c-2.1-1.3-3.9-2.1-6.1-3c-2.2-0.9-4.4-1.3-6.1-1.8c-1.8-0.4-3.5-0.8-5.3-1.7c-3-1.3-6.6-4.8-9.2-7.5c-2.6-2.6-3.9-3.9-4.8-7c-0.9-3-0.9-8.3-0.9-12.7c0-4.3 0-9.2-3.5-11.4c-2.2-1.3-5.3-1.7-8.3-2.1c-1.3 0-2.7 0-4-0.5c-2.6-0.4-3.5-1.7-4.4-4.3c-0.8-3.1-0.8-8.4-0.8-14.5c0-6.6-0.1-13.6-2.7-25.4c-2.6-11-7.5-27.2-11.4-37.2c-1.3-3.1-2.2-5.7-3.1-7.9c-1.3-4-2.6-6.6-3-9.2c-0.9-4.8-0.9-9.6 0.8-15.8q2-6.5 5.3-15.8q1.9-4.6 3.9-10.5c3.5-10.5 7-23.2 8.7-31.1l0.5-2.6c1.3-6.1 1.7-8.8 7.4-12.3c5.7-3.5 17.1-7.9 25.4-11.4l4.4-1.7c8.7-3.5 12.7-5.3 15.7-8.4c3.6-3 5.3-7 6.2-12.7c0.8-5.2 0.8-12.7 0.8-17.9c0-5.7 0-9.7-4.8-15.8c-3.9-4.8-11.4-10.9-16.6-15.3l-2.2-1.8c-5.3-4.3-6.6-5.7-8.4-11.3c-0.8-3.1-1.7-7.5-2.6-11.4c-0.9-4.4-1.8-8.8-2.6-11.9c-1.8-5.7-3.1-7.8-4.9-10l-0.8-1.3q-2.7-4.6-4-9.2c-0.9-3.1-0.9-6.6 0-9.7c0.4-3 2.2-6.5 3.9-9.2c1.3-2.2 3.1-3.9 4.8-5.7l5.3-5.2c1.8-2.2 3.9-4 4.8-9.2c0.9-3.1 0.9-7 1.3-13.2c0.5-3 0.5-7 0.9-11.8c0.4-8.3 1.3-19.3 2.2-28.9c0.4-5.7 0.8-11 1.3-15.3c0-3.6 0.4-6.2 0.4-8.4c0.4-5.2 0.9-7.9 1.3-10.9c0.9-3.5 2.2-8.8 4.4-13.6c2.2-4.8 3.9-7.9 6.1-11c1.3-1.7 3.1-3.5 4.8-5.7c1.3-1.7 3.1-3.5 4.8-5.7c1.3-1.7 2.2-3 3.5-4.8c2.6-3 4.8-6.1 7-8.3c2.6-2.6 5.3-3.9 8.3-6.1q2-1.4 4-2.7c0.9-0.8 2.2-1.7 3.5-2.6c4.4-3.1 9.6-6.6 14.4-8.8c2.7-0.8 4.4-1.3 7-2.2q2-0.6 4-1.3c2.2 4.8 6.6 8.3 16.2 14c5.7 3.1 12.7 6.6 19.7 10.5c7 3.5 14 7.5 19.3 10.5c5.7 3.1 9.2 5.7 11.8 7.5c2.7 1.7 4 3 5.7 3.5c2.7 0.8 4.8 0 6.6-0.9c0.4-0.5 0.9-0.9 1.7-0.9c1.8-0.9 4.9-0.9 7.1 0.4q0.6 0.7 2.6 2.7c1.7 2.1 4.4 4.8 9.2 8.7c7.9 6.1 22.3 15.3 31.5 19.7c9.7 4.8 13.2 4.8 17.1 4.8c3.5 0 7.5 0 9.7-0.9c2.2-0.9 2.6-2.6 3-3.9c0-0.5 0.5-0.9 0.5-1.3c0-0.5 0.4-1.3 0.8-1.8c0.9-1.3 2.2-2.6 2.7-4.8c0.4-0.9 0.4-1.8 0.8-3.5c0.5-3.1 1.8-8.8 5.3-21.5c4.8-18.4 15.7-52.1 21.8-71c4.4-13.1 6.6-18.8 7.9-21.9c0.4-0.8 0.4-1.7 0.9-2.6c0.8-3.1 0.8-5.2 0.8-7.9c0-3 0-7-2.2-10.9c-1.3-2.2-3-4.4-4.3-6.2c-0.5-0.4-0.9-1.3-1.4-1.7c0.5-0.4 1.4-0.4 1.8-0.9c1.3-0.4 2.6-1.3 4.8-2.2q3.3-1.3 7.9-3.9c6.1-3.5 13.6-7.5 18.4-9.2c5.7-2.2 7-0.9 8.7 0.8c1.8 2.2 4 4.4 14.5 11.4l1.3-1.7c-1.3 1.7-2.2 3.5-2.2 6.1c0 3.5 1.8 8.8 2.7 14c0.9 5.3 0.9 11-3.5 27.6c-4.8 17.1-13.6 45.6-19.7 61.3c-6.1 16.3-9.6 19.8-10.5 25c-0.8 5.3 0.9 12.3 1.8 18.4c0.9 6.1 0.9 11.4 2.6 16.7c1.8 5.2 5.3 10.5 1.4 19.2z"/>
			<path data-area="khh" class="kaohsiung khh" d="m259.9 1581.9l1.8 1.3c-0.9-0.8-1.8-1.3-2.6-1.7c-6.2-3.5-11.4-7-14.9-9.6c-3.5-2.2-5.3-4-7.9-4.4c-0.5-0.4-0.9-0.4-1.8-0.4q-0.6 0-1.3 0c-0.9 0-1.3 0-1.7 0c-0.5-0.5-1.4-0.5-1.8-0.5c0 0-0.4 0-0.9 0c-0.8-0.4-2.2-0.4-3-0.8c-4.4-1.8-9.7-4.9-12.3-7c-2.6-2.2-2.6-4-2.6-4.9c0-0.8 0-1.7 2.2-0.8c2.1 0.8 6.5 4.3 9.2 5.6c2.6 1.4 3.9 1.4 4.3 0.9c0.9-0.9 1.4-2.2 0.5-3.9c-0.9-1.8-3.1-4-6.2-7c-3-3.1-6.5-6.6-10-10.1c-3.6-3.5-7.1-7-13.2-14c-6.1-7.4-14.9-18-20.2-25.8c-5.2-7.9-7-13.2-5.7-16.7c1.3-3.5 5.7-5.2 8.4-6.1c2.6-0.9 3.5-0.9 3.9-2.2c0.4-1.3 0.4-3.9-1.3-8.3c-1.8-4.4-5.3-10.5-8.8-15.3c-0.4-0.9-1.3-1.8-1.8-2.7c-3-3.9-6.5-8.3-13.5-21c-8.4-14.9-21.5-41.1-37.3-72.7l1.7 1.3c1.3-1.7 2.2-3 3.1-4.3c0.4-0.5 0.9-1.4 1.3-1.8c0.9-0.4 1.3-1.3 1.7-2.2c0.9-1.3 2.2-3.1 2.7-3.5q0.6 0.7 1.3 1.3c1.3 1.3 2.6 3.1 5.2 4.4c4.9 3.1 12.3 4.8 19.8 4.8c3 0 6.5 0 9.2-0.4c3.5-0.5 7-0.9 9.2-0.5c1.7 0.4 3 1.8 4.8 3.1c0.9 1.3 2.2 2.2 3.9 3c2.7 1.3 5.7 1.8 8.8 1.8c2.6 0 4.8 0 7-0.5c3.1-0.4 6.1-1.3 9.2-2.2c2.2-0.4 4.4-0.8 6.1-1.3c1.8-0.4 3.5-0.9 4.8-0.9c2.7-0.4 4.4-0.4 5.7-1.3c2.7-0.9 3.1-3 3.5-4.8c0-0.4 0-1.3 0.5-1.7c0.8-3.1 3-5.7 4.8-7.9c2.2-2.2 5.2-4 7.4-4c1.3 0 2.2 0.5 3.5 1.3c0.9 0.5 1.3 0.5 1.8 0.9c2.6 1.3 5.2 1.3 7-0.4c1.7-1.8 1.7-4 1.7-7.9c0-3.5 0-8.3 0.9-12.7c0.9-4.4 2.6-7.5 3.9-8.8c0.9-0.9 1.8-1.3 4-1.7c0.9 0 1.3-0.5 2.2-0.5c3.5-0.4 8.7-2.6 12.7-4.4c3.5-1.7 5.7-3.5 7-6.1c0.9-2.2 0.8-4 0.8-7.9c0-3.5 0-8.8 0.9-10.9c0.5-0.9 0.5-1.4 2.2-2.7c1.3-1.3 3.1-2.6 5.3-4.8c2.1-2.2 4.8-5.7 8.3-9.2c4.3-5.3 10-11.4 16.2-17.5c4.3-4.4 9.2-8.8 13.5-13.2c6.6-5.7 12.3-11.4 16.7-16.2c7.4-8.8 9.2-14.5 10.9-21.5c0.4-1.3 0.9-3.5 1.3-5.2c1.3-5.7 3.1-12.3 4.8-17.6c1.3-3.9 3.1-7 4.8-10.5q2-3.9 4-7.9c0.4-1.3 1.3-3 1.7-4.3c1.8-4.9 3.5-9.7 7.5-13.6c3.9-4 10.5-7 17-10.1q2.7-1.3 5.3-2.6c7.4-3.6 17.5-9.3 23.6-15.4c4-3.5 5.7-7.4 7.9-10.9c0.9-1.8 1.8-3.6 3.1-5.3c3-4.8 8.3-10.1 15.3-15.3c5.7-4.4 13.1-8.8 19.2-12.8l3.6-2.2c7.8-4.8 12.6-8.3 16.6-11.4c3.9-3 6.6-6.1 14.4-17.5c0.5 0 1.3 0.5 1.8 0.5c4.4 0.8 9.6 0.8 19.3 0.8h38.5c0.4 1.7 2.2 3.5 3.5 4.8c1.8 1.8 3.1 3.5 4 4.8c0.4 0.9 0 1.3 0 1.3c-0.5 0.5-2.2 0.9-3.5 0.9c-1.4 0.4-3.1 0.5-4.9 0.9c-2.2 0.4-3.9 1.3-5.7 1.7c-1.7 0.9-3.5 1.4-5.2 1.8c-1.8 0.4-3.1 0.9-4.4 0.9c-1.7 0.4-3.5 0.9-4.8 1.3c-3.1 1.8-3.1 4.8-3.1 7.4c0 3.1 0 6.6 0.9 9.7c1.3 3.5 4 5.7 8.8 6.5c2.6 0.5 5.7 0.9 8.7 0.9c3.1 0.5 5.7 0.5 8.4 0.9c4.3 0.9 7.4 2.2 7.8 3.9c0.5 0.9-0.4 3.1-0.8 5.3c0 1.7-0.5 3-0.9 4.4c-0.4 2.6-1.3 7.8 0 12.7c-1.3 0-2.6 0.4-3.9 0.8c-2.7 0.9-4.8 1.8-7.5 2.7c-4.8 2.2-10.5 5.7-15.3 9.2c-1.3 0.9-2.2 1.7-3.5 2.6q-2 1.3-3.9 2.6c-3.5 2.2-6.2 4-8.8 6.6c-2.6 2.2-5.2 5.7-7.4 8.8c-1.4 1.3-2.2 3.1-3.5 4.4c-1.8 2.2-3.1 3.9-4.9 5.7c-1.7 2.2-3.5 3.9-4.8 6.1c-2.6 3.1-4.3 6.6-6.5 11.8c-1.8 5.3-3.5 10.6-4.4 14.5c-0.9 3.1-0.9 6.1-1.3 11.4c0 2.2 0 4.8-0.4 8.3c-0.5 4.4-0.9 9.6-1.3 15.3c-0.9 9.7-1.8 20.6-2.2 28.9c-0.4 4.9-0.9 8.8-0.9 12.3c0 6.1-0.4 10.1-0.8 12.7c-0.9 4-2.2 5.3-4 7l-5.2 5.3c-1.8 1.7-4 3.9-5.7 6.6c-2.2 3.5-4 7-4.8 10.5q-1.3 5.9 0 11.8c0.9 3.5 2.6 7.4 4.8 10.5l0.9 1.3c1.3 2.2 2.6 4 3.9 8.8c0.9 3 1.8 7.4 2.7 11.4c0.8 3 1.3 6.5 2.2 9.2c-5.3-1.8-6.6-3.1-7.5-4c-0.4-0.4-0.4-0.4-0.9-0.8c-2.2-2.2-7-2.2-10.9 0c-4 1.7-7.9 5.7-11.4 9.2c-3.9 3.5-7.4 7.4-9.2 10q-0.6 1.4-1.3 2.7c-0.9-0.9-2.2-2.2-3.1-3.1c-2.6-2.6-6.1-6.6-10.1-9.2c-4.3-3-8.3-4.8-11.8-4.8c-4.4 0-8.3 2.2-10.5 4.4c-1.3 0.9-1.7 1.8-2.2 2.6c-0.4 0.9-0.4 1.3-0.9 1.3c-1.3 0.5-3.9 0.5-7-0.8c-3-1.3-6.1-4.8-7.9-7c-0.8-1.3-1.3-2.2-1.7-3.1c-0.4-0.9-0.4-1.7-1.3-2.6c-1.8-1.8-4-1.8-6.2-1.8c-1.7 0-4.3 0-7.4 2.2c-0.9 0.9-1.8 1.3-2.6 2.2c-2.2 1.8-4.4 3.5-6.6 4c-2.2 0.4-4.8-0.5-7-1.3c-0.9 0-1.3-0.5-1.8-0.5c-3-0.9-5.2-0.9-7.8-0.9c-2.7 0.1-6.6 0.1-9.7 0.9q-5.2 2-6.5 7.9c0 0.9-0.5 2.2-0.5 3.1c-0.4 2.6-1.3 6.1-3.5 9.2c-2.2 2.6-6.1 5.2-9.6 7.4c-1.3 0.9-3.1 1.8-3.9 2.7c-1.4 1.3-2.2 2.2-3.1 3c-0.9 1.4-1.3 1.8-3.1 2.2c-3 0.9-10.1 0.9-15.3 0.9c-5.3 0-8.8 0-12.7 0.9c-2.2 0.4-4.4 1.3-6.6 2.2c-0.9 0.4-2.2 0.9-3 1.3c-0.9 0-1.4 0.5-1.8 0.5c-1.7 0.8-3.9 1.3-4.8 3.5c-0.9 2.2-0.9 5.2-0.9 19.7l0.1 80.6c0 3.9 0 7.4 0.9 10.5c0.8 3 3 5.2 4.8 7c1.7 1.7 3.1 3.1 3.9 5.2c0.9 2.7 0.9 5.7 0 8.8c-0.4 1.8-1.3 3.5-1.7 5.3c-0.4 1.7-1.3 3.9-1.8 5.7c-0.4 2.1-0.4 3.9-0.8 6.1c-0.5 1.7-0.5 3.5-0.9 5.7c-0.9 4.4-2.6 9.6-4.4 14.9c-1.7 4.8-3.5 10.1-5.7 14c-1.7 3.1-3.5 5.3-7 6.1z"/>
			<path data-area="pif" class="pingtung pif" d="m573.3 1779.3c1.7 1.7 1.7 3.5-2.2 8.3c-4 4.8-11.8 12.7-11.8 18c0 10.5-2.6 24-3.1 33.2c-0.4 9.7 1.4 14.9 1.4 21.9c0 7.5-1.8 16.3-2.7 21.5c-0.8 5.3-0.8 7-2.1 7.9c-1.4 0.9-4 0.9-5.7-0.9c-1.8-1.7-2.7-5.2-3.1-9.6c-0.5-4.4-0.5-9.6-16.2-14.9c-10.5-10.5-13.2-13.1-15.4-14.4c-2.2-1.4-3.9-1.3-5.2 1.3c-1.3 2.6-2.2 7.9-2.6 12.7c-0.5 4.8-0.5 9.2-2.2 11.4c-1.8 2.2-5.3 2.2-7.9-1.8c-2.6-3.9-4.4-11.8-9.2-20.1c-4.8-8.8-12.7-17.5-18.4-24.5c-5.7-7-9.2-12.3-11-15.8c-1.8-3.5-1.8-5.2-0.9-9.6c0.9-4.4 2.6-11.4 4.4-17.6c1.7-6.1 3.5-11.3 4.4-15.3c0.8-3.9 0.8-6.6-4.4-17.1c-21.5-31.5-29.4-45.1-33.4-52.5c-3.9-7.4-3.9-9.2-5.7-10.9c-1.7-1.8-5.2-3.6-17.5-13.6c-12.7-10.1-33.7-28.5-60.5-55.2c-5.2-5.2-10.5-7.8-14.9-10c-4.4-2.2-7.9-4-10.5-5.7c-2.6-1.8-4.4-3.5-6.1-6.1c-1.8-2.7-3.5-6.2-5.3-8.8c-1.7-2.6-3.5-4.4-5.3-3.5c-1.7 0.9-3.5 4.4-5.2 7c-1.8 2.6-3.5 4.4-6.1 4.4c-2.7 0-6.2-1.8-11.4-4.4c-4-1.7-8.8-4.3-13.6-7c3.1-3 4.8-5.2 6.6-8.3c2.6-4.4 4.3-10.1 6.1-15.3c1.7-5.3 3.5-11 4.3-15.4c0.5-2.2 0.5-4.4 0.9-6.1c0.5-2.2 0.5-3.9 0.9-5.7c0.4-1.7 1.3-3.5 1.7-5.3c0.5-1.7 1.3-3.9 1.8-5.7c0.9-3.9 0.9-7.8 0-10.9c-0.9-3.1-3.1-5.3-4.8-7c-1.8-1.8-3.1-3.1-4-5.3c-0.9-2.6-0.9-5.7-0.9-9.2v-80.6c0-11.8 0-16.2 0.4-17.5c0.4-0.4 0.4-0.4 2.2-0.9c0.4 0 0.9-0.4 1.7-0.4c0.9-0.4 2.2-0.9 3.5-1.3c1.8-0.9 4-1.8 6.2-2.2c3-0.9 6.5-0.9 11.8-0.9c5.7 0 12.7 0 16.6-0.9c2.7-0.9 4-2.2 5.3-3.5c0.9-0.4 1.3-1.3 2.6-2.2q2-1.3 4-2.6c3.5-2.2 7.8-4.8 10.5-8.3c3-4 3.9-7.9 4.3-11.4c0-0.9 0-1.8 0.5-2.7c0.8-3.5 2.2-4.3 3.9-4.8c2.6-0.9 5.7-0.9 8.3-0.9c2.7 0 4.4 0 6.6 0.9c0.4 0 0.9 0.5 1.3 0.5c2.7 0.8 6.2 2.1 9.7 1.3c2.6-0.9 5.7-3.1 7.8-4.9c0.5-0.8 1.4-1.3 2.2-1.7c1.8-1.3 3.1-1.3 4.8-1.3c0.9 0 2.2 0 2.7 0c0 0 0.4 0.4 0.4 0.8c0.5 0.9 1.3 2.2 2.2 4c1.8 2.6 5.7 6.5 9.6 8.7c4 1.8 8.4 2.2 11 0.9c1.3-0.9 2.2-2.2 2.6-3.1c0.5-0.4 0.9-1.3 1.3-1.7c1.4-1.8 4.9-3.1 7.5-3.1q3.9 0 9.2 3.9c3.5 2.7 7 6.2 9.6 8.8c3.1 3.1 4.8 4.8 6.6 4.8c1.8 0 2.6-1.7 3.1-2.6c0.4-0.9 0.4-1.8 1.3-2.6c1.7-2.2 5.2-5.7 8.7-9.3c3.5-3 7-6.5 10.1-8.3c3.1-1.3 5.7-0.9 6.6-0.4l0.4 0.4c1.3 1.3 3.5 3.5 12.3 6.1c1.7 4.4 3.9 6.6 8.7 10.5l2.2 1.8c5.3 4.4 12.3 10.5 16.3 14.9c3.9 4.8 3.9 7.4 3.9 12.7c0 5.2 0 12.2-0.9 17.5c-0.8 4.8-2.1 7.9-4.8 10.5c-2.6 2.2-5.7 4-14.4 7.5l-4.4 1.7c-8.8 3.5-20.1 7.9-26.3 11.9c-7 4.4-7.9 8.3-9.2 14.9l-0.4 2.2c-1.7 7.8-5.2 20.1-8.7 30.6c-1.3 3.5-2.2 7-3.5 10.5c-2.2 6.2-4 11.4-5.3 16.3c-1.7 7-1.7 12.7-0.8 17.9c0.8 3.1 1.7 5.7 3.5 10.1c0.8 2.2 1.7 4.8 3 7.9c3.6 10 8.8 25.8 11.5 36.7c2.6 11 2.6 18 2.6 24.1c0 6.6 0 11.9 0.9 15.8c1.3 4.4 3.5 7 7.9 7.9c1.3 0.4 2.6 0.9 4.4 0.9c2.6 0.4 5.2 0.8 6.5 1.7c1.8 0.9 1.8 3.5 1.8 7.9c0 4.4 0 9.6 0.9 13.6c1.3 3.9 3 6.1 6.1 8.7c3.1 2.6 6.6 6.6 10.5 8.3c1.8 1.4 4 1.8 6.2 2.2c1.7 0.5 3.5 0.9 5.2 1.8c1.8 0.4 3.5 1.7 5.7 2.6c2.6 1.7 6.2 3.5 9.2 4.4c5.7 1.7 11.4 1.7 20.6 1.7c2.2 0 4.4 0 6.6 0.4l0.4-2.1c0.5 1.7 0.5 3 0.9 4.8c0.4 1.7 0.9 3 0.9 4.8c0 1.7 0.4 3.1 0.4 4.8c0 1.3 0.5 3.1 0.5 4.4c0.4 1.7 0.4 3 0.4 4.8q0 2 0 3.9c0 1.8 0 3.1 0 4.9c0 0.8 0 2.2 0 3c0 2.2 0 4 0 5.7c0 0.5 0 1.3 0 1.8c-0.4 7-0.9 13.1-0.9 17.9c-0.4 13.2 1.4 18.4 4 21.9c2.6 3.5 6.1 5.3 5.3 6.2z"/>
			<path data-area="cyi" class="chiayi cyi" d="m60.3 1132.2c0-1.3 0.5-2.2 0.5-3.5c1.7-11.4 3.5-20.6 4.3-31.1c0.9-10.5 0.9-22.8 0.9-32.8c0-10.1 0-17.1-0.9-24.1c-0.5-4.4-1.3-8.8-2.2-13.6c8.3-0.4 11.4-2.6 13.6-3.9l0.8-0.5c1.8-0.9 2.7-0.9 3.5-0.4c0.9 0 1.8 0.8 2.7 1.7c0.8 0.5 1.7 1.3 3 2.2c1.3 0.9 2.7 1.8 4.4 2.6c1.8 0.9 3.1 1.8 4.4 2.7c0.4 0.4 0.9 0.4 1.3 0.8c1.3 0.9 3.1 2.2 4.8 2.2c0.5 0 1.3 0 1.8-0.4c1.3-0.9 2.6-2.6 3.9-4.4c0.5-0.4 1.3-1.8 1.8-2.2c0.4-0.4 1.3-0.9 1.7-1.3c0.9-0.4 2.2-0.9 3.1-2.6c0.9-0.9 0.9-2.7 1.3-4.4c0.4-1.3 0.4-2.6 0.9-3.5c0.8-2.2 2.2-3.5 3.9-5.3c1.8-1.7 3.5-3 4.8-3.9c0.5-0.5 1.3-0.9 2.2-0.9c0.9 0 2.2-0.4 3.1-0.9c0.9-0.4 1.7-0.9 2.2-1.3c0.4-0.9 1.7-1.3 2.2-1.3c0.4 0 1.3 0.9 2.2 1.3c0.8 0.4 1.7 0.9 2.1 1.3c2.2 0.9 4.4 0.9 6.2 0.9c2.2 0 4.8 0 7.9-5.3c1.7-2.6 3.9-7 5.6-11.4c1.4-2.6 2.7-5.2 3.5-7.4c3.1-5.3 4-5.7 4.4-5.7c0.9 0 2.6 1.7 4 3c2.2 1.8 5.2 4.9 9.2 2.2c1.3-0.8 3-2.6 4.8-4.8c2.2-2.2 4.8-5.3 7.9-7.9c4.3-3.9 10.9-8.3 15.7-11.4c1.8-0.9 3.1-1.7 4.4-2.6c2.6-1.8 4.4-3.1 5.7-4c0.9-0.8 1.7-1.3 2.6-1.7c1.3-0.5 2.6-0.5 6.1-0.5h28.5c2.2 0 4.4 0 4.8 0.5c0 0 0.5 0.4 0.5 0.8c0 0.9 0.9 2.2 1.7 4c2.2 3 5.7 6.5 8.4 9.2l6.1 6.1c1.7 1.7 3.5 3.9 5.7 4.8c2.2 0.9 4.4 0.9 7 0.9h8.8c3 0 4.8 0 7.8-0.9c0.9-0.4 1.8-0.4 2.7-0.9c1.7-0.9 3.9-1.7 5.7-1.7c1.3 0 2.2 0.8 3.5 1.3c0.8 0.4 2.2 0.8 3 1.3c3.1 0.9 7 0.9 10.1 0c1.3-0.5 2.2-0.9 3.1-1.3c2.2-0.9 3.5-1.4 6.5-0.5c2.2 0.5 5.3 1.3 10.1 1.3c3.5 0 8.3-0.4 12.7-0.9c4.4-0.4 8.8-0.8 12.3-0.8c5.7 0 8.7 1.3 11.4 2.1l1.3 0.5c1.3 0.8 5.7 2.2 7.9-1.8c0.9-2.2 0.8-5.7 0.8-8.7v-6.2c0-1.7 0-1.7 1.4-2.2c0.4 0 0.8-0.4 1.7-0.4c0.9-0.4 2.6-0.9 4.4-1.3c1.3 2.6 3.5 4.4 7.9 6.1c2.6 0.9 6.5 2.2 10.1 3.1c2.6 0.8 4.8 1.3 7 2.1c5.2 1.8 8.3 3.5 10.5 5.7c2.2 2.2 3.9 5.3 4.8 8.8c0.9 3.1 0.9 6.1 0 8.3c-0.4 0.9-0.4 1.8-0.9 2.2c-0.8 1.3-1.7 3.5-0.8 5.7q1.3 2 3.9 3.9c1.3 1.4 3.1 2.7 5.3 4.9c3 3 6.1 7 9.6 11.3c1.8 1.8 3.1 3.5 4.4 5.3c3.9 5.2 8.3 9.6 14.5 10.5c3.5 0.4 7.4 0 11.3-0.5c2.2 0 4.9-0.4 6.6-0.4c2.6 0 4.4 0.4 6.6 0.9c-7.5 10.5-9.6 12.7-12.7 14.9c-3.5 3-8.8 6.1-16.2 10.9l-3.5 2.2c-6.6 4.4-13.6 8.8-19.7 13.2c-7.5 5.7-13.1 10.9-16.6 16.6c-0.9 1.8-2.2 3.5-3.1 5.3c-1.8 3.5-3.5 6.6-7 10.1c-4.4 4.4-12.3 9.2-22.3 14.4q-2.7 1.4-5.3 2.7c-7 3-14 6.6-18.4 10.9c-4.4 4.4-6.1 9.7-8.3 14.9c-0.4 1.8-1.3 3.1-1.7 4.4c-0.9 2.7-2.2 4.8-3.5 7.5c-1.8 3-3.5 6.5-5.3 10.9c-0.4 0.9-0.4 1.3-0.9 2.2c-10 0-17 0-20.1-0.8c-2.2-0.5-2.2-0.9-2.2-2.2v-5.3c0-1.7 0-3.9-1.8-4.8c-0.8-0.4-1.7-0.9-3.5 0c-2.2 1.3-6.1 5.3-7.8 7.9c-2.2 3.1-2.2 5.7-2.2 7.4v0.5c-0.5-0.5-1.3-0.9-2.2-0.9c-1.3 0-2.2 1.3-2.6 1.7c-0.5 0.5-0.5 0.9-0.9 0.9c-1.3 0.5-4 0.5-5.3 0c-0.4 0-0.4-0.4-0.9-2.2c0-0.4 0-0.8-0.4-1.7c-0.9-3.1-2.6-6.6-4.4-10.1l-6.1-12.2c-2.2-4.9-6.2-12.7-8.8-17.1c-0.9-1.8-1.8-3.1-2.2-4c-0.9-1.3-1.7-2.6-1.7-3c0-0.9 1.7-2.7 3-4c1.8-1.7 4-3.5 4.8-5.7c1.3-2.6 1.3-5.2 0-7.4c-1.3-2.2-3-4-6.1-6.1c-0.9-0.9-1.8-1.4-2.6-1.8c-2.2-1.3-4.4-2.6-6.2-4.4c-0.8-1.3-2.2-2.6-3-3.9c-1.4-2.2-3.1-4.4-5.7-7c-2.2-2.2-5.3-4.8-8.4-7.5c-2.6-2.1-4.8-3.9-6.5-5.6c-1.8-2.2-2.7-3.5-3.1-4.4c-0.5-0.5-0.9-1.3-1.3-1.8c-2.2-2.2-6.2-0.8-7.5-0.4c-0.8 0.4-2.2 0.9-3.5 1.3c-1.7 0.9-3.9 1.8-6.1 2.2c-1.8 0.4-3.1 0.9-4.4 0.9c-1.7 0.4-3.5 0.9-4.8 1.3c-1.3 0.4-1.8 1.3-2.2 1.8c-0.4 0.8-0.4 0.8-1.3 0.8c-1.3 0-3.9-0.8-6.6-1.3q-2.6-0.6-5.2-1.3c-4.4-0.9-8.4-0.9-11.9-0.9c-3.5 0-7.4 0.1-11.3 2.2c-2.2 1.4-4 2.7-6.2 4.4c-1.7 1.3-3.9 2.7-5.7 4c-1.3 0.4-2.6 1.3-4.3 2.2c-3.6 1.7-7.1 3.5-11 6.5c-3.5 2.7-7 6.6-10.1 10.1c-1.7 1.8-3.5 4-5.2 5.7c-1.8 1.8-3.1 3.1-4.4 4c-2.2 1.7-3.9 3.5-4.8 5.7c-0.9 3 0.4 6.1 1.3 8.7c0 0.9 0.5 1.3 0.5 1.8c0.8 2.2 0.4 3 0.4 3c0 0-0.9 0-1.8-0.4c-0.4-0.4-1.3-1.3-2.1-1.7c-0.9-0.9-2.2-1.8-3.1-2.2c-2.6-1.3-5.3-1.3-7.5 0c-2.2 1.3-3.9 3-6.1 6.1c-0.9 1.3-1.7 2.6-2.6 4.4c-0.9 1.7-1.8 3.1-2.6 4.4c-1.8 3-3.1 3.5-4.4 3.5c-1.8 0-4-0.9-7-2.2l-2.7-0.9c-1.7-0.4-3.9-1.3-6.1-2.2c-2.6-1.3-5.7-2.1-8.8-3.5h-0.4c-3.9-1.7-9.2-3.9-22.8-2.6z"/>
			<path data-area="yun" class="yunlin yun" d="m64.2 1018.3c-0.9-9.2-0.9-19.7 0-31.1c0.8-11.3 2.6-24 6.9-38.1c4.9-14 11.9-30.2 19.3-44.7q0.6-1.3 1.3-2.6c0 0 0.4 0 0.4-0.4c0-0.9 0.5-1.8 0.9-2.2c0-0.5 0-0.9 0.5-1.3c0.4-0.5 0.4-0.9 0.8-1.3c0.5-0.5 0.5-0.9 0.9-1.4c0.4-0.4 0.4-0.8 0.9-1.3c0.4-0.4 0.4-0.9 0.9-1.3c0.4-0.9 0.4-1.3 0.8-1.7c0.5-0.5 0.5-0.9 0.9-1.4c0.4-0.8 0.4-1.3 0.9-1.7c0.4-0.5 0.4-0.9 0.9-1.3c0.4-0.9 0.4-1.3 0.8-1.8c0.5-0.4 0.5-0.9 0.9-1.3c0-0.9 0.4-1.3 0.9-1.7c0-0.9 0.4-1.4 0.9-1.8c0.4-0.4 0.8-1.3 1.3-1.8c0.4-0.8 0.8-1.3 1.3-1.7c0.4-0.4 0.9-1.3 1.3-1.8c0.4-0.4 0.9-1.3 1.3-1.7c0.4-0.4 0.9-1.3 1.3-1.8c0.5-0.4 0.9-1.3 1.3-1.7c0.5-0.5 0.9-1.3 1.3-1.8c0.9-0.8 1.4-1.3 1.8-2.2c0.4-0.4 0.9-1.3 1.3-1.7c0.4-0.9 1.3-1.3 1.8-2.2c0.4-0.4 0.8-1.3 1.3-1.8c0.4-0.4 1.3-1.3 1.7-2.2c0.9-0.8 1.3-1.3 1.8-2.1c0.8-0.9 1.3-1.8 2.2-2.7c0-0.4 0.4-0.8 0.8-1.3l-0.8 1.8c2.1 1.3 4.3 2.2 6.1 3c4.4 2.2 8.3 4 10.9 4.8c3.1 0.9 5.3 0.9 7.1 0.9c1.7 0 3.5 0 8.3-0.9c3.5-0.4 11.4-2.2 16.2-4.4c1.7-0.8 3-1.7 4.4-2.2c1.7-0.8 3-1.7 5.7-2.2c3.9-0.8 10.9-0.8 17.9-0.8c6.6 0 13.6 0 19.7 1.7c2.7 0.4 4.8 1.7 7.5 2.6c3.5 1.8 7.4 3.5 12.2 4.4c5.7 1.3 12.3 1.7 18.4 2.2c3.1 0.4 6.2 0.4 9.2 0.8c4.4 0.5 7.9 1.3 11.9 1.8c4.3 0.4 8.7 1.3 14 1.7c9.6 0.9 21.9 0.9 30.2 0.9c7.9 0 11.4 0 13.6 0.8c2.2 0.9 3.5 2.2 5.2 4c1.4 1.3 3.1 3 3.1 3.9c0 0.5-0.4 1.3-0.9 2.2c-0.8 0.9-1.3 2.2-1.7 3.5c-0.9 3.1-0.9 6.6-0.9 11.4c0 4.4 0 9.2-0.8 12.7c-0.5 1.3-1.4 2.6-1.8 4c-0.4 1.3-1.3 2.6-1.7 4.8c-0.9 3.9-0.9 9.6-0.9 14.9v14c0 4.4 0 7.4 3.1 7.4c0.8 0 1.3-0.4 2.2-0.8c0.8-0.5 2.1-0.9 3.9-0.9c1.8 0 4.4 0.8 7.4 1.3c1.8 0.4 4 0.9 6.2 1.3c6.6 1.3 11.8 0.9 17.1-0.9c2.2-0.9 4.8-1.8 7-3.1c2.6-1.3 5.2-2.6 7.4-3c3.5-0.5 6.1 0.4 8.3 1.3c0.5 0 0.9 0.4 1.4 0.4c0.8 0.4 1.7 0.9 2.6 0.9c0.9 0 1.7 0.4 1.7 0.4c-1.3 0.9-2.6 0.9-3.9 1.3c-0.9 0-1.8 0-2.2 0.5c-4.4 1.3-4.4 4.8-4.4 6.5v6.2c0 2.2 0 5.7-0.8 7c0 0-0.5 0.4-2.7-0.4l-1.3-0.5c-2.6-0.9-6.1-2.2-12.7-2.2c-3.5 0-8.3 0.5-12.7 0.9c-4.4 0.5-8.7 0.9-12.3 0.9c-3.9 0-7-0.9-9.2-1.3c-1.3 0-2.6-0.4-3.9-0.4c-2.2 0-3.9 0.8-5.2 1.7c-0.9 0-1.8 0.5-2.7 0.9c-2.2 0.9-5.2 0.9-7.4 0c-0.9 0-1.8-0.4-2.7-0.9c-1.3-0.8-3-1.7-5.2-1.7c-2.6 0-5.3 0.9-7.5 1.7c-0.8 0.5-1.3 0.5-2.1 0.9c-2.7 0.9-4 0.9-6.6 0.9h-8.8c-2.6 0-3.9 0-5.2-0.4c-1.3-0.5-3.1-2.2-4.9-4l-6.1-6.1c-2.6-2.2-6.1-5.7-7.9-8.3c-0.9-1.3-1.3-2.2-1.7-3.1c-0.5-0.9-0.5-1.7-1.3-2.6c-1.8-1.8-4-1.8-7.9-1.8l-28.5 0.1c-3.5 0-5.7 0-7.9 0.8c-1.3 0.5-2.2 1.4-3.5 2.2c-1.3 0.9-3.1 2.2-5.7 4q-1.3 1.3-3.9 2.6c-5.3 3.1-11.8 7-16.7 11.4c-3.5 3.1-6.1 6.2-8.3 8.3c-1.3 1.8-3 3.5-3.9 4c-0.9 0.9-1.3 0.9-3.5-1.3c-2.2-2.2-4.4-4.4-7-4.4c-3.5 0-5.7 3.5-8.3 8.3c-0.9 2.2-2.2 4.8-3.5 7.5c-1.8 3.9-3.5 8.3-5.3 10.9c-2.2 3.5-3.1 3.5-4.4 3.5c-1.7 0-3 0-4.4-0.4c-0.8 0-1.3-0.4-1.7-0.9c-1.3-0.8-3.1-1.7-4.8-1.7c-1.8 0-3.5 0.9-4.8 1.7c-0.9 0.5-1.4 0.5-1.8 0.9c-0.4 0.5-1.3 0.9-2.2 0.9c-0.9 0-2.2 0.4-3.1 0.9c-1.7 0.8-3.9 3-5.6 4.8c-1.8 1.7-4 3.9-4.9 7c-0.4 1.3-0.4 3.1-0.8 4.4c-0.5 1.3-0.5 3.1-0.9 3.5c-0.4 0.4-0.4 0.4-1.3 0.9c-0.9 0.4-1.8 1.3-2.6 2.2c-0.5 0.8-1.4 2.1-2.2 3c-0.5 0.9-1.8 2.2-2.2 2.7c-0.5 0.4-1.8-0.9-2.6-1.4c-0.5 0-0.9-0.4-1.4-0.8c-1.3-0.9-2.6-1.8-4.3-2.7c-1.8-0.8-3.1-1.7-4.4-2.6c-1.3-0.9-2.2-1.7-3.1-2.2c-1.3-0.8-2.2-1.7-3.5-2.2c-2.6-1.3-5.3-1.3-7.9 0.5l-0.9 0.4c-1.7 1.3-4.3 3.1-11.8 3.1v2.2c-0.4-2.2-0.4-4.4 0.9-7.5z"/>
			<path data-area="chw" class="changhua chw" d="m131.5 853.6c-1.3-0.9-3.5-2.2-5.2-3.1c16.2-15.7 18.8-32 23.6-46c4.8-14 11.8-26.7 17.9-36.3c6.1-10.1 11.4-17.1 16.7-24.1c5.2-7.1 10.5-13.6 14.8-20.2c4.4-6.6 7.9-11.8 13.2-23.2c5.2-11.4 12.2-29.4 19.2-41.7c3.5-6.5 7-11.3 10.5-15.7l-0.4 2.2c3 0.4 3.9 1.3 4.8 2.1q0.6 0.7 1.3 1.4c1.3 0.8 3.1 1.3 4.8 1.7c0.9 0.4 1.8 0.4 2.6 0.9c0 0 0 0.4-0.4 1.3c0 0.9-0.4 1.3-0.9 1.8c-0.8 1.3-1.7 3-1.7 4.8c0 1.7 0.4 3 1.3 4.4q0.7 1.3 1.3 2.6c0.5 0.9 0.5 2.6 0.9 3.9c0 1.8 0.4 3.1 0.9 4.8c0.9 3.1 3 5.7 6.6 6.6c1.3 0.4 3 0.4 4.8 0.9c1.3 0.4 2.6 0.4 3.9 0.8c2.2 0.5 3.5 1.8 5.3 4.4l0.8 1.3c1.4 2.7 3.6 5.7 7.5 8.8c5.3 3.9 12.7 7.4 18.4 10.1c1.3 0.8 2.6 1.3 3.9 1.7c4.4 1.3 7.9 3.1 9.7 4.8c0.9 1.3 1.7 2.6 2.2 4c0.9 1.3 1.7 3 3.1 4.8c-1.4 0.4-2.2 0.9-3.1 1.3c-1.8 0.9-4.4 0.9-6.6 1.3c-2.2 0-3.9 0.4-5.2 0.9c-1.8 0.9-3.1 1.7-3.5 3.1c-0.5 1.7-0.5 3 0.4 4.8c0.4 0.4 0.9 1.3 1.3 2.2c0.9 0.8 1.8 2.2 2.2 3.5c0.4 1.3 0.4 3 0.9 5.2c0.4 1.8 0.4 3.5 0.9 5.7c0.4 4.8 2.6 12.3 4.4 17.1c0.8 1.7 1.7 3.1 2.2 4.4c0.8 1.7 1.7 3 2.1 5.7c0.9 4.3 0.9 10.9 0.1 18.8q-0.7 4.6-1.3 9.2c-0.5 4.8-1.4 9.6-1.4 13.1c0.1 6.6 2.7 8.8 6.6 11c1.3 0.9 2.2 1.3 3.5 1.7c2.7 1.3 5.7 2.7 7.5 4.4c1.3 1.3 1.7 2.6 2.2 4.4c0.4 1.3 0.9 2.6 1.7 3.9c2.2 3.1 6.2 5.3 10.5 5.3c3.1 0 5.7-1.3 8.4-2.2c0.4-0.5 1.3-0.5 1.7-0.9c1.3-0.4 2.2-0.4 2.6-0.4c0.5 0 0.5 0 0.5 0c0.4 0.4 0.4 2.6 0.4 3.9c0 2.6 0 6.1-0.8 8.3c-0.9 2.7-2.7 3.5-3.5 4c-1.4 0.4-2.7 0.4-6.2 0.4c-2.2 0-5.7 0-10.5 3.1c-0.9-0.4-2.2-1.3-3.5-1.8c-3.1-0.8-6.6-0.8-14.9-0.8c-7.9 0-20.1 0-29.8-0.9c-4.8-0.4-9.2-0.8-13.6-1.7c-3.5-0.9-7.4-1.3-11.8-1.8c-3-0.4-6.1-0.4-9.6-0.8c-6.2 0-12.3-0.5-17.5-1.8c-4.4-0.8-7.9-2.6-11.4-3.9c-2.7-1.3-5.3-2.2-7.9-3.1c-6.6-1.7-14-1.7-21-1.7c-7.1 0-14.1 0-18.9 0.9c-3 0.4-4.8 1.7-7 2.6c-1.3 0.5-2.2 1.3-3.9 1.8c-4.4 1.7-11 3.5-15.8 4.4c-3.9 0.8-5.7 0.8-7.4 0.8c-1.8 0-3.5 0-5.7-0.8c-2.7-0.9-6.2-2.7-9.7-4.4z"/>
			<path data-area="txg" class="taichung txg" d="m251.4 645.5c-1.3-1.8-3.1-2.7-6.6-3.5c3.1-3.5 5.7-7.5 8.3-11.4c6.2-9.7 11.4-21.9 14.9-32c3.5-10.1 5.3-17.1 11.4-29.4c0.9-1.7 1.7-3 2.6-4.8c0.4-0.9 0.4-1.3 0.9-1.8c0.4-0.8 1.3-2.1 1.7-3.5c0-0.4 0.5-1.3 0.9-1.7c0.9-0.9 1.3-2.2 2.2-3.5c0.4-0.9 0.9-1.3 1.3-2.2c0.9-1.3 1.3-2.6 2.2-4c0.4-0.8 0.9-1.3 1.3-2.1q1.3-2 2.6-4c0.5-0.4 0.9-1.3 1.3-1.7c0.9-1.8 1.8-3.1 2.7-4.9c0.4-0.4 0.8-1.3 1.3-2.1c0.9-1.8 2.2-3.6 3-5.3c0-0.4 0.5-0.4 0.5-0.9l12.7 12.7c3.1 3.1 6.6 7 11.4 9.6c2.6 1.4 4.8 2.2 7.4 3.5c2.7 1.3 5.7 2.7 8.8 4.4c2.6 1.3 5.7 3.5 8.3 5.3c4 2.1 7.5 4.3 10.5 6.1c4 2.2 7.5 2.6 10.1 3c0.9 0 1.8 0 2.6 0.5c0.5 0.4 1.4 0.4 2.2 0.9c3.1 0.4 6.2 1.7 10.1 0.8c3.5-0.9 7-2.6 11-4.8c1.3-0.9 2.6-1.8 4.3-2.6c3.1-1.3 5.7-2.7 8.4-3.5c2.1-0.9 3.9-1.8 5.6-2.7c1.4-0.4 2.7-1.3 3.6-1.7c1.3-0.9 2.6-1.8 4.8-2.2c3-0.9 8.3-0.9 11.8-0.9c3.1 0 4.4 0 6.6 1.3c2.6 1.8 6.1 5.3 8.7 7.9c2.7 2.6 4.4 4.8 6.6 5.7c2.2 0.8 4.4 0.8 7 0.8h9.7c3.5 0 6.5 0 10 0.9c2.2 0.4 4.4 1.3 6.2 2.2c1.3 0.4 2.6 0.9 3.5 1.3c3 0.9 5.2 0.9 8.3 0c1.3-0.4 2.6-0.9 4.4-1.8c1.7-0.8 3-1.3 4.3-1.7c1.4-0.5 2.2-0.5 2.7-0.5c0.4 0 0.4 0 0.4 0c0 0.5 0.4 0.9 0.4 1.4c0 0.8 0.5 1.7 0.9 2.6c1.3 2.6 3.5 4.8 6.6 5.7c1.3 0.4 3.1 0.4 4.8 0.8c1.3 0.5 2.6 0.5 4 0.9c0.8 0 1.3 0 1.7 0.5c1.3 0.4 2.2 0.8 4 0.8c1.3 0 2.1-0.4 3.5-1.3c1.3-0.9 3-3.1 4.8-4.8c1.3-1.8 3-3.5 4.8-4.8c3.1-2.2 5.7-2.2 8.3-2.2h6.1c2.2 0 4.4 0 7.9-3.5c1.3-1.8 2.7-3.5 4.4-5.7c1.8-2.2 3.1-4 4.4-5.3c2.2-2.2 3-2.2 4.8-2.2c2.2 0 4.8 0 7-2.6c0.9-0.9 1.3-1.8 2.2-2.7c1.3-1.7 3.1-3.9 5.7-6.1c3.9-3.1 10.5-6.6 16.2-8.3c4.8-1.3 7.9-1.3 8.7-0.9c0.5 0.4 0.5 0.4 0.9 0.9c0.9 0.4 2.2 2.2 4.8 0.8c2.7-1.3 6.6-5.2 8.4-10q0.6-2 1.3-4c0.8-3 1.7-6.1 4.8-9.6c21-5.3 26.2-7.9 30.6-10.1c2.7-1.3 4.8-2.6 7.5-4.4c2.6 5.3 5.7 10.1 7.9 13.6l3.9 6.1c2.6 4.4 4.4 7 7 8.8c3.1 2.1 7 2.1 11.9 2.1c4.3 0 9.6 0 14.4-0.8c1.8-0.5 3.5-0.9 4.8-1.4c2.7-0.8 4.8-1.3 7.5-1.3c3.5 0 7.9 1.3 12.7 3.5c-14.5 18.4-22.3 27.6-28.5 34.2c-5.2 5.7-9.2 8.8-12.2 11.4c-1.3 1.3-2.7 2.2-3.5 3.1c-3.5 3.5-3.5 5.7-3.5 10.5c0 4.4 0 11.8 0.9 17.9c1.3 6.6 3 11.9 6.5 19.3c1.4 2.6 3.1 6.1 4.9 9.2c2.6 4.4 4.8 8.3 5.7 10.9c0.4 0.5 0.4 0.9 0.4 1.4c-3.5 0.4-10.5 0-15.3 2.2c-2.2 1.3-4.4 3.5-5.7 6.1c-4-2.6-7.9-2.6-11.8-2.6h-21.9c-8.8 0-19.3 0-24.6-0.9c-3.5-0.4-3.9-1.3-4.3-3l-0.5-0.9c-0.9-2.6-2.6-6.1-8.3-13.1c-5.3-6.6-14.5-15.4-19.7-18.9c-6.6-4.3-9.7-2.1-12.7 0.5l-0.5 0.4c-3.5 2.7-8.7 6.2-13.1 8.8c-4.8 3.1-7.9 4.4-11 5.3c-0.8 0-2.2 0.4-3 0.4c-2.7 0.4-5.3 0.9-7.5 2.2c-3.5 2.6-5.7 7.4-6.1 9.2c-0.4 0.9-0.9 1.7-0.9 2.6c0 0.9-0.4 1.8-0.4 1.8c-0.4 0-1.3 0.4-2.2 0.4c-0.9 0.5-1.8 0.5-3.1 0.9c-2.6 0.9-8.7 2.6-13.1 5.7c-2.2 1.8-3.5 3.5-4.8 4.8c-0.9 0.9-1.8 1.8-2.2 2.2c-0.4 0-1.8-1.3-2.6-2.2c-2.2-1.7-4.4-3.9-7-3.9c-2.7 0-4.9 2.2-7.9 6.1l-1.8 2.2c-2.2 3.1-4.8 6.6-6.5 7.9c-0.9 0.4-1.4 0.4-3.1-0.4c-0.9-0.5-1.3-0.5-2.2-0.9c-1.8-0.4-3.5-0.4-5.3-0.9c-1.7-0.4-3-0.4-4.8-0.9c-1.7-0.4-3-0.8-4.4-1.3q-3.2-1.3-5.2-1.3c-2.2 0-3.5 1.8-4 2.7c-0.4 0.8-0.8 1.3-1.3 1.7c-0.4 0.5-1.3 1.3-2.2 1.8c-1.7 1.3-4.3 3-6.1 5.7c-1.3 2.2-2.6 4.8-3.9 7.4c-0.9 1.3-1.8 3.1-2.2 4c-0.4 0.4-0.9 0.8-0.9 0.8c0-0.4-0.4-1.7-0.4-2.6c0-1.3-0.5-2.6-0.9-3.9c-1.8-3.1-4.4-3.1-8.3-3.1h-12.3c-3.5 0-6.6 0-8.7 3.5c-0.9 1.3-1.8 3.1-2.7 4.8c-0.8 2.2-2.2 4.9-3.5 6.6c-0.8 0.9-2.2 2.2-3 3.1c-1.8 1.7-4 3.9-5.3 7c-1.3 3.1-1.7 7.4-2.2 10.9c-0.4 1.8-0.4 3.6-0.8 5.3c-0.9 3.9-2.2 5.3-4 7c-1.7 1.8-3.9 4-4.8 7c-0.4 1.3-0.9 3.1-0.9 4.4c-0.4 1.8-0.4 3.1-0.8 3.5c0 0.5 0 0.5-1.4 0c0 0-0.4 0-0.8-0.4c-1.8-0.9-3.5-2.2-7-2.2c-1.8 0-3.5 0.4-5.7 0.9c-2.7 0.4-6.2 0.9-10.1 0.9c-6.6 0-15.3-1.8-22.4-4.4c-4.8-1.8-8.3-3.9-12.2-6.1q-2.6-1.3-5.3-2.7c-1.7-0.8-3-1.3-4.8-2.1c-3.1-1.4-6.1-2.7-7.9-4.4c-0.9-1.3-1.7-2.6-2.2-4c-0.4-1.7-1.3-3.5-3-5.2c-2.2-2.6-6.2-4-11-6.1c-1.3-0.9-2.6-1.4-3.9-1.8c-7.5-3.5-13.6-7-17.1-9.6c-3.5-3.1-5.3-5.7-6.6-7.9c-0.4-0.4-0.4-0.9-0.9-1.3c-1.7-2.2-3.9-4.8-7.4-6.1c-1.4-0.5-3.1-0.5-4.9-0.9c-1.3-0.4-2.6-0.4-3.9-0.9c-2.2-0.9-3.5-1.7-3.9-3.9c-0.5-0.9-0.5-2.6-0.9-4c0-1.7-0.5-3-0.9-4.8c-0.4-1.3-1.3-2.6-1.8-3.5c-0.4-0.9-0.8-1.7-0.8-2.2c0-0.4 0.8-1.3 1.3-2.2c0.4-0.8 0.9-1.7 1.3-2.2c0.9-1.7 0.9-3.5 0.4-4.8c-0.4-0.8-1.3-2.2-2.6-2.6c-0.9-0.4-2.2-0.4-3.5-0.9c-0.9 0-2.6-0.4-3.1-0.8c-0.4-0.5-0.4-0.5 0.9 0z"/>
			<path data-area="ntc" class="nantou ntc" d="m674.1 720.1c-4.3 7-5.2 11.8-3.9 15.7c0.9 3.1 3.1 5.3 4.8 7c1.3 1.8 3.1 3.1 4.9 5.7c1.3 2.7 3 5.7 3 11.4c0 6.6-2.2 16.2-3.5 21.5c-1.7 6.1-3 11.8-5.2 16.6c-1.8 4.4-3.5 7.9-5.3 11.4c-1.7 3.5-3.5 7-7 12.3c-1.3 2.2-3 4.4-4.8 7c-2.2 3.5-4.8 7.4-6.5 10.1c-2.2 3.5-4 7-0.5 10.5c1.4 1.3 3.1 2.2 4.9 3.5c1.3 0.9 3 1.7 4.3 3.1c3.5 2.6 7.1 6.1 9.7 8.7c2.6 2.6 3.9 3.9 3.9 5.7c0 0.9-0.4 2.2-0.8 4.8c-0.9 2.6-2.2 6.6-3.5 13.2c-0.9 4.8-2.2 11.8-3.5 18.4c-1.8 9.6-3.5 19.7-5.3 25.8c-2.1 8.8-3 9.2-6.5 10.5l-0.9 0.5c-4.8 1.7-11.8 5.2-15.8 9.2c-4.3 4.4-4.3 8.7-4.3 13.1c0 4 0 9.7-0.9 11.8c-0.4 0.9-0.4 0.9-4.8 1.8l-1.8 0.4c-2.6 0.5-6.1 1.4-9.6 1.8c-3.5 0.9-7 1.3-9.6 1.8l-1.8 0.4c-4.4 0.9-6.6 1.3-8.8 4.4c-0.8 1.3-1.7 3.5-2.6 5.7c-1.3 2.6-2.6 5.7-4.4 8.7c-3.9 7.1-10 14.5-12.2 17.6l-1.8 2.2c-1.7 1.7-3 3.5-3.5 4.8h-38.5c-9.2 0-14 0-18.4-0.9c-0.9-0.4-2.2-0.4-3.1-0.8l-0.8-0.5c-2.7-0.8-5.7-1.7-9.7-1.7c-2.2 0-4.4 0-7 0.4c-3.9 0.5-7.4 0.9-10.5 0.5c-4.4-0.5-7.4-3.5-11.8-8.8c-1.8-1.7-3.1-3.5-4.4-5.2c-3.5-4.4-7-8.8-10.1-11.8c-2.2-2.2-3.9-3.5-5.7-4.9c-1.3-0.8-2.6-1.7-2.6-2.1c0 0 0.4-1.4 0.9-1.8q0.6-1.3 1.3-2.6c0.8-3.1 0.8-7 0-11c-0.9-4.4-3.1-8.3-5.7-10.9c-2.7-2.7-6.2-4.4-12.3-6.6c-2.2-0.9-4.4-1.3-7-2.2c-3.5-0.8-7-2.2-9.7-3c-4.3-1.8-5.7-3.5-6.1-4.4c0-0.4-0.4-1.3-0.4-1.8c-0.5-0.8-0.9-2.1-1.8-3c-0.9-1.3-2.2-1.3-3.5-1.8c-0.9 0-1.8 0-2.6-0.4l-1.3-0.4c-2.7-0.9-6.2-2.2-10.6-1.4c-3 0.9-5.6 2.2-8.7 3.6c-2.2 1.3-4.4 2.1-6.6 3c-4.4 1.8-9.2 1.8-14.9 0.9c-2.2-0.4-4.4-0.9-6.1-1.3c-3.1-0.4-5.7-1.3-8.3-1.3c-2.2 0-3.5 0.4-4.8 0.9c0-0.5 0-1.3 0-2.2l-0.1-14c0-5.3 0-10.1 0.9-13.6c0.4-1.3 1.3-2.6 1.8-4c0.4-1.3 1.3-2.6 1.7-4.8c0.9-3.5 0.9-8.7 0.9-13.6c0-4.3 0-7.8 0.8-10q0.7-1.3 1.4-2.7c0.4-1.3 1.3-2.6 1.3-4.3c0-3.1-1.8-4.9-4-7c3.1-1.8 5.3-1.8 7-1.8c3.5 0 5.7 0 7.9-0.9c2.6-1.3 4.8-3.5 5.7-6.6c0.9-3 0.9-7 0.9-9.6c0-3.1 0-5.2-1.8-7c-2.2-2.2-6.1-0.9-7.4-0.4c-0.9 0.4-1.4 0.4-2.2 0.8c-2.2 0.9-4.8 1.8-7 1.8c-2.7 0-5.7-1.3-7-3.5c-0.5-0.9-0.9-1.7-1.4-3.1c-0.8-2.2-1.7-4.3-3.5-6.1c-2.2-2.2-5.7-3.9-8.7-5.2c-0.9-0.5-2.2-0.9-3.1-1.4c-2.6-1.7-3.9-2.6-3.9-7c0-3 0.4-7.8 1.3-12.7q0.6-4.6 1.3-9.2c0.8-8.3 0.8-15.3 0-20.1c-0.5-3.1-1.8-4.8-2.7-7c-0.4-1.3-1.3-2.2-1.7-4c-1.8-3.9-3.5-10.5-4.4-16.2c-0.5-2.2-0.9-3.9-0.9-5.7c0-2.1-0.4-4.3-0.9-6.1c-0.9-2.2-1.7-3.5-2.6-4.8c0-0.4-0.5-1.3-0.9-1.8c-0.4-0.4-0.4-0.8-0.4-0.8c0 0 0.4 0 0.8-0.5c0.9-0.4 2.7-0.4 4.4-0.8c2.2-0.1 4.8-0.5 7.5-1.4q2.6-0.6 5.2-2.6c1.8 0.9 3.5 1.7 5.7 2.6c1.8 0.9 3.1 1.3 4.8 2.2q2.7 1.3 5.3 2.6c3.5 2.2 7.9 4.4 12.7 6.2c7.4 2.6 16.6 4.3 23.7 4.3c4.3 0 7.8-0.9 10.9-1.3c1.8 0 3.5-0.4 4.8-0.4c2.2 0 3.5 0.8 4.8 1.7c0.5 0.4 0.9 0.4 1.4 0.9c0.8 0.4 2.1 0.9 3 0.9c2.2 0 3.5-0.9 4.4-2.7c0.9-0.9 0.9-2.6 1.3-4.4c0.5-0.8 0.4-2.6 0.9-3.5c0.9-2.2 2.2-3.5 3.9-5.2c1.8-2.2 4-4 4.8-9.2c0.5-1.8 0.9-3.5 0.9-5.7c0.4-3.5 0.9-7 1.8-9.7c0.8-2.6 2.6-3.9 4.3-5.7c1.3-1.3 2.7-2.6 3.5-3.9c1.3-2.2 2.7-4.8 4-7.4c0.8-1.4 1.7-3.1 2.2-4c0.8-1.7 1.7-1.7 5.2-1.7l12.3-0.1c3 0 3.9 0 4.4 0.5c0.4 0.9 0.8 2.2 0.8 3c0 1.4 0.5 2.7 0.9 4c0.9 1.7 2.2 2.6 3.5 2.6c1.3 0 3.1-0.4 4.8-3.1c0.9-1.3 1.8-3 2.7-4.8c0.8-2.2 2.1-4.8 3.5-6.5c1.7-2.2 3.5-3.6 5.2-4.9c0.9-0.8 1.8-1.3 2.6-2.2c0.9-0.8 1.4-1.7 1.8-2.2c0.4 0 0.4-0.4 0.4-0.4c0.5 0 2.2 0.4 3.5 0.9c1.8 0.9 3.1 1.3 4.9 1.7c1.7 0.5 3.5 0.5 5.2 0.9c1.8 0.4 3.1 0.4 4.4 0.9c0.9 0 1.3 0 1.7 0.4c1.8 0.9 4.4 2.2 7.5 0c2.6-1.3 5.2-5.3 7.9-8.8l1.7-2.2c2.2-3 3.5-4.3 4.4-4.3c0.9 0 2.6 1.7 3.9 3c2.2 2.2 4.9 4.8 7.9 3.1c1.3-0.4 2.2-1.8 3.5-3.1q1.3-2 4-3.9c3.5-2.7 9.6-4.4 11.4-4.8c1.3-0.1 2.1-0.5 3-0.5c2.2-0.4 3.5-0.9 4.4-1.7c1.3-1.4 1.3-2.7 1.7-4c0-0.9 0-1.7 0.5-2.6c0.9-3.1 2.6-5.7 4.4-7c1.3-0.9 3.5-1.3 5.6-1.8c1.4-0.4 2.2-0.4 3.6-0.9c3.5-0.8 7-2.6 12.2-5.7c4.4-3 10.1-6.5 13.6-9.2l0.4-0.4c3.1-2.2 3.5-3.1 7.5-0.5c5.2 3.5 14 12.3 19.3 18.4c5.2 6.6 6.5 9.7 7.4 11.8v0.9c1.3 3.1 2.2 5.3 7.9 6.2c5.3 0.8 15.8 0.8 25 0.8h21.9c3.9 0 7 0 10 2.6c-0.8 3.5-0.8 7.5 0.1 11.4c0.4 0.9 0.4 1.8 0.8 2.6c0.9 2.7 1.3 4.8 0.9 7c-0.9 2.2-2.6 4.4-6.1 8.8c-1.3 1.3-2.6 3.1-4.4 5.3c-6.6 8.3-15.3 20.6-20.6 26.3z"/>
			<path data-area="tyn" class="taoyuan tyn" d="m504.7 230.9c-2.2-0.9-4.8-1.7-8.3-2.2c5.2-6.5 10.5-13.1 15.8-18.4c7.4-7 14.4-12.3 19.7-15.8c5.2-3.5 8.7-4.8 18.3-11.4c9.7-6.5 25.9-17.1 34.6-24.1c8.8-7 10.5-10.5 20.2-14c9.6-3.5 27.6-7 39.8-9.7c1.3 0 3.1-0.4 4.4-0.9l-0.4 2.2c8.3 2.2 11.8 3.1 14.9 4c1.7 0.4 3.5 0.4 5.2 0.8c3.1 0.5 4.8 0.9 7 1.8c2.2 0.9 4.8 3 7.5 5.2c1.3 0.9 2.6 2.2 3.9 3.1c1.3 0.9 2.2 1.8 3.5 2.6c3.5 2.7 7 4.8 8.8 7.5c2.2 3 2.2 5.7 2.2 9.2c0 3.5 0 6.5-0.9 10.9c-0.9 4.4-2.6 9.2-4.4 12.7c-1.3 3.1-3 4.8-4.8 6.6c-1.7 1.7-3 3.5-5.7 5.3q-4.6 2.6-9.2 3.9c-1.7 0.4-3 0.9-4.3 0.9c-1.8 0.4-3.5 0.4-4.9 1.3c-2.6 0.9-3 3.1-3.5 5.7c0 0.4-0.4 0.9-0.4 1.7l-0.4 1.8c-0.9 3.5-2.2 8.3-1.3 12.7c0.8 3.9 3.5 7.4 6.5 11c0.5 0.8 1.4 1.3 1.8 2.1c3.9 5.3 7 10.1 8.3 14.5c0.9 3.5 1.4 6.6 1.8 9.2c0.4 2.2 0.4 3.9 0.9 5.2c0.9 4.4 3.5 7 9.2 8.8c4.4 1.3 14.4 3.5 21.4 2.6c4.4-0.4 7.9-2.6 10.1-3.9c0.9-0.5 2.2-0.9 2.6-1.4c0.9 0 0.9 0 0.9 0c0 0 1.3 0.9 1.8 4.4c0.4 2.6 0.9 6.2 0.9 10.1c0.4 3.5 0.4 7.4 0.8 10.9c0.9 7.5 2.7 13.2 4.4 18.4c1.8 5.3 3.5 11 7.1 18c3.5 7 8.7 16.2 12.7 20.1c0.8 0.5 1.3 0.9 1.7 1.3c-2.2 4-4.8 7.9-7 11.4c-2.2 3.1-3.9 6.2-5.7 8.8c-4.8 7.5-7 13.1-7.8 20.6c-0.5 0.9-0.5 2.2-0.5 3.1q-0.6 3.9-1.3 7.8c-3.5-3.9-8.7-7-11.8-8.3c-1.3-0.8-2.6-1.3-4.4-2.2c-4.4-1.7-8.3-3.5-14-7.4c-4.8-3.5-11.4-8.7-17.1-13.1c-3.1-2.6-5.7-4.8-8.3-6.6c-1.8-1.3-3.5-2.6-4.9-3.5c-3.5-2.6-5.2-3.9-5.7-5.2c0-1.4 0.5-3.1 0.9-5.3q0.7-2.6 1.3-5.3c0.5-3 0.9-6.1 0.9-9.1c0.4-3.1 0.4-6.2 0.9-8.8c0-1.8 0.4-3.5 0.8-4.8c0.9-3.1 1.8-5.7 0.9-8.8c-0.9-4.4-5.3-8.3-8.8-10.9c-3.5-2.7-7-4.4-16.6-7.5c-3.1-1.3-6.6-2.2-10.1-3c-7.9-2.2-16.2-4.8-22.8-7c-8.3-3.1-14-6.1-17.9-10.1c-2.2-2.2-3.5-4.4-5.3-6.5c-0.9-0.9-1.7-2.2-2.6-3.6q-2-3.2-5.3-6.5c-1.7-1.8-3.5-4-5.2-6.1c-0.9-1.4-1.8-2.2-2.7-3.5c-3.9-4.4-8.3-10.1-12.7-13.6c-4.8-4-9.6-5.7-14.4-7.9l-3.1-1.3c-1.3-0.9-3.1-1.3-4.8-2.2c-5.3-2.2-10.1-4.4-14.9-5.7c-3.5-0.8-7-1.3-10.1-1.7c-2.6-0.5-4.8-0.9-7-1.3c-0.9-0.5-1.8-0.9-3.1 0.4z"/>
			<path data-area="zmi" class="miaoli zmi" d="m306.5 521.5c0.9-0.9 1.3-2.2 2.2-3.5c10.5-18.5 21.4-36.9 37.2-68.8c5.7-11 16.2-21.5 23.2-29.4c7-7.9 10.5-13.2 14.8-15.8c4.4-2.6 9.7-2.6 14.9-3.5c5.3-0.9 10.5-2.6 15.8-8.8c5.3-6.5 10.5-17.1 14.9-23.2c4.4-6.1 7.9-7.9 9.6-11.4c0.9-0.9 0.9-2.6 1.3-4.4l0.9 2.2c2.2-0.9 3.9-2.6 5.2-4.8c0.5-1.3 0.9-2.6 1.4-3.5l0.4-0.9h0.4c0 0.5 0.5 0.9 0.5 1.3c0 0.9 0.4 1.8 0.9 2.7c0.4 0.8 0.8 1.3 1.3 2.1c0.8 0.9 1.7 2.2 2.2 3.5c0 0.9 0.4 1.8 0.4 2.7c0.4 2.2 0.9 4.4 2.6 6.1c1.8 1.8 4.4 2.2 7.5 2.6c0.9 0 1.7 0 3 0.5c2.2 0.4 4.9 0.8 7.1 1.7c2.1 0.4 4.8 1.3 7 1.8c1.3 0 2.2 0.4 3.5 0.4c2.6 0.4 4.8 0.9 6.1 1.7c0.9 0.5 1.8 1.8 3.1 3.1c1.3 2.2 3.5 4.4 7 7.4c4.4 3.5 10.1 7.9 15.8 11.9c3 2.1 5.7 4.3 8.3 6.1c3.9 3 7 5.2 9.2 7.4c1.7 1.3 3.5 2.7 4.8 4c3.5 3 7.5 4.8 11.4 5.7c1.8 0.4 3.5 0.4 5.3 0.8c1.7 0.5 3 0.5 4.3 0.9q1.4 0.7 2.7 1.3c1.7 0.9 3.5 2.2 7 3.1c3.5 0.8 8.7 2.2 14 3.5c2.6 0.4 5.3 1.3 7.4 1.7c4 1.3 7.5 2.2 10.6 3.1c1.7 0.8 3.9 1.3 5.2 1.7c1.8 0.5 2.7 0.5 4 0.9c1.7 0.4 2.6 0.4 3.9 0.9c3.1 1.3 6.1 3 9.6 6.5c4.4 4.4 10.1 11.8 13.2 16.7c0.9 1.3 1.8 2.6 2.2 3.5c2.2 3.9 3.9 6.1 6.1 7.8c1.8 1.4 4 1.8 5.3 2.2h0.4c0 0.5 0 0.5 0 0.5c-0.4 0.8-0.8 1.7-1.3 3c-0.9 3.1-0.9 6.6-0.9 11.4c0.1 4.4 0.1 9.7-1.3 13.2c-0.4 1.3-0.8 2.6-1.3 3.5c-0.4 0.4-0.4 1.3-0.8 1.7c0 0.5-0.5 0.5-0.5 0.9l0.9 0.4v0.9l-1.8-1.7c-4.3 4.3-5.6 8.3-6.5 12.2c-0.5 1.3-0.9 2.2-1.3 3.5c-1.3 3.5-4 6.6-5.7 7.5c-0.5-0.9-1.3-1.3-2.2-1.8c-2.6-1.3-7-0.8-12.3 0.9c-4.8 1.8-12.7 5.3-17.5 9.2c-3.1 2.7-5.2 5.3-6.6 7c-0.8 0.9-1.3 1.8-1.7 2.2c-1.3 1.4-2.2 1.4-3.9 1.4c-2.2 0-4.4 0-7.9 3.5c-1.3 1.7-2.7 3.5-4.4 5.7c-1.8 2.2-3.1 3.9-4.4 5.2c-2.2 2.2-3 2.2-4.8 2.2h-6.1c-2.7 0-7 0-11 3.1c-2.2 1.7-3.9 3.5-5.7 5.7c-1.3 1.3-3 3.1-3.9 3.9c-0.9 0.5-1.3 0.5-3.1-0.4c-0.9-0.4-1.3-0.4-2.2-0.9c-1.3-0.4-3-0.4-4.8-0.8c-1.3-0.5-2.6-0.5-3.9-0.9c-2.7-0.9-3.5-2.6-4-3.5c0-0.5-0.4-1.3-0.4-1.8c-0.4-0.8-0.9-2.2-1.8-3c-2.2-2.2-6.1-0.9-7.4-0.5c-1.3 0.5-2.6 0.9-4.4 1.8c-1.7 0.9-3.1 1.3-4.4 1.7c-2.2 0.9-3.5 0.9-5.7 0c-0.8-0.4-1.7-0.8-3-1.3c-1.8-0.4-4.4-1.7-6.6-2.2c-3.5-0.8-7.4-0.8-11-0.8h-9.6c-2.6 0-3.9 0-5.2-0.4c-1.4-0.9-3.1-2.2-5.7-4.9c-2.7-2.6-6.6-6.5-9.2-8.3c-3.1-2.2-5.3-2.2-9.2-2.2c-4 0-9.2 0-13.2 0.9c-2.6 0.5-4.4 1.3-6.1 2.7c-0.9 0.4-1.8 1.3-3.1 1.7c-1.7 0.9-3.5 1.8-5.7 2.6c-2.6 1.4-5.7 2.7-8.7 4c-1.8 0.9-3.1 1.7-4.8 2.6c-3.6 1.8-7.1 4-9.7 4.4c-2.6 0.9-5.2 0-7.9-0.9c-0.8-0.4-1.7-0.4-2.6-0.8c-0.9 0-2.2-0.5-3.1-0.5c-2.6-0.4-5.2-0.8-8.7-2.6c-2.7-1.3-6.2-3.9-9.7-6.1c-3-1.8-6.1-3.5-8.7-5.3c-3.5-1.7-6.6-3-9.2-4.3c-2.7-1.4-4.9-2.2-7-3.5c-4-2.7-7.5-6.2-10.6-9.2l-13.1-13.2z"/>
			<path data-area="hsz" class="hsinchu hsz hsh" d="m461.4 278.2c-0.9-0.4-2.2-0.8-3.5-1.7c3.9-4.4 8.3-8.8 12.7-13.6c8.3-8.8 15.3-19.7 22.3-29.4q2-2.6 3.9-5.2l-0.4 2.2c3.9 0.9 6.6 1.3 8.8 2.2c0.8 0.4 2.1 0.4 3 0.8c2.7 0.5 4.8 0.9 7.5 1.3c2.6 0.5 5.7 0.9 9.2 1.8c4.4 1.3 9.2 3.5 14 5.7c1.3 0.9 3.1 1.3 4.8 2.2l3.1 1.3c4.8 2.2 8.7 3.9 13.1 7.4c4 3.5 8.4 8.8 11.9 13.1c0.8 1.4 1.7 2.7 2.6 3.5c1.7 2.2 3.5 4.4 5.3 6.2c2.1 2.2 3.9 4.4 5.2 6.1c0.5 1.3 1.3 2.2 2.2 3.5c1.3 2.6 3.1 4.8 5.7 7.4c4.4 4.4 10.5 7.9 19.3 11c6.6 2.6 14.9 4.8 22.8 7c3.9 0.9 7.4 1.7 10 2.6c8.8 2.6 12.3 3.9 15.4 6.6c3.9 2.6 6.6 5.6 7 8.3c0.4 1.7-0.4 3.9-0.9 6.5c0 1.4-0.4 3.1-0.9 4.9c-0.4 3-0.8 6.1-0.8 9.2c-0.5 3-0.5 6.1-0.9 8.7c0 1.8-0.4 3.5-0.9 4.8c-0.4 3.1-1.3 5.7-0.4 7.9c0.9 2.7 3.1 4.4 7.5 7.5c1.3 0.8 3 2.2 4.8 3.5c2.6 1.7 5.2 4.3 8.3 6.5c5.7 4.4 12.3 9.7 17.5 13.2c5.7 3.9 10.6 6.1 14.5 7.8c1.3 0.9 3.1 1.3 4.4 2.2c6.1 3.1 10.5 6.1 12.7 9.2c0 0 0.4 0 0.4 0.5l1.8-1.4l-1.8 1.4c1.3 2.6 1.3 4.8 0 8.7c-1.3 4-4.8 9.2-9.2 14.5c-1.7 2.2-3.5 3.9-5.2 6.1c-3.5 3.5-7 7.5-11 12.7c-2.6 3.5-5.6 7-8.3 11c-3.9 5.2-7.4 10.1-10.5 13.6c-5.2 5.7-8.3 7.4-12.7 9.6c-3.9 2.2-8.7 4.4-24.9 8.8c0.4-0.5 0.4-1.3 0.8-2.2c1.4-4.4 1.4-10.1 1.4-14.5c-0.1-4.3-0.1-7.8 0.8-10c0-0.9 0.5-1.8 0.9-2.2c0.4-1.3 1.7-3.5 0-5.3c-0.9-0.9-2.2-0.9-3.5-1.3q-2 0-4-1.3c-1.3-1.3-2.6-3.5-4.8-6.6c-0.4-0.8-1.3-2.2-2.2-3.5c-3.5-5.2-8.7-12.2-13.6-17c-3.5-3.6-7.4-6.2-11.4-7.5c-1.7-0.4-3-0.4-4.3-0.9c-1.4-0.4-2.7-0.4-4-0.8q-2-0.7-5.2-1.3c-3.1-0.9-6.6-2.2-11-3.1c-2.2-0.4-4.8-1.3-7.4-1.7c-4.9-1.4-10.1-2.2-13.6-3.5c-2.6-0.9-4.4-1.8-6.2-2.7c-1.3-0.8-2.1-1.3-3.5-1.7c-1.7-0.5-3.5-0.5-5.2-0.9c-1.8-0.4-3.1-0.4-4.8-0.9c-3.1-0.8-6.2-2.1-9.7-4.8c-1.3-0.8-2.6-2.2-4.4-3.5c-2.6-2.2-5.2-4.8-9.6-7.9c-2.6-1.7-5.7-3.9-8.8-6.1c-5.7-3.9-11.4-7.9-15.3-11.4c-3.1-3-4.8-5.2-6.6-7q-1.9-2.6-3.9-3.9c-2.2-1.7-4.8-2.2-7.9-2.6c-1.3 0-2.2 0-3.5-0.5c-2.2-0.4-4.8-0.8-7-1.7c-2.2-0.4-4.8-1.3-7-1.8c-1.3 0-2.7-0.4-3.5-0.4c-1.3-0.4-2.7-0.4-3.5-0.9c2.1-3 2.6-5.2 3-7.8l0.5-1.4c0.8-3.9 2.6-8.7 4.3-13.5c1.3-4 3.1-7.5 5.7-10.1c1.8-1.8 4-3.1 6.1-4.4c0.5-0.4 1.4-0.9 2.2-1.3c0.9-0.9 1.3-1.3 2.2-1.8c1.8-1.3 2.6-2.2 4.4-2.6c2.2-0.4 4.8-0.4 6.1 0c0.5 0.4 0.5 0.4 0.9 1.3c0.4 0.4 0.9 1.3 1.3 1.8c0.9 0.8 2.2 0.8 3.1 1.3c0.4 0.4 1.3 0.4 1.7 0.8c1.4 0.9 3.1 2.2 3.6 3.5c0 0.5 0.4 1.4 0.4 1.8c0.4 0.9 0.9 2.2 1.7 3.1c1.8 1.7 4.9 1.7 6.6 0c1.8-1.8 1.8-4 1.8-6.2c0-1.7 0-3.9-0.9-6.1c-0.5-0.9-0.9-1.3-1.3-2.2c-0.9-0.9-1.8-2.2-2.2-3.5c-0.5-1.3-0.9-2.6-0.9-4.4c0-1.7-0.4-3.5-0.9-5.2c-0.9-4.4-3.1-8.4-5.7-11c-3.1-2.6-6.6-4.8-10.9-5.7c-4-0.8-7.9-0.8-12.3-0.8c-3.5 0-8.8 0-11-1.3c-1.3-0.9-1.7-2.2-2.1-3.5c-0.5-0.9-0.5-2.2-1.4-3.1c-0.8-1.3-2.6-2.2-3.9-4z"/>
			<path data-area="tpe" class="taipei tpe ntpc kel" d="m1037.8 183.2c-1.8 1.8-5.3 3.5-8.8 4.4c-3.5 0.9-7 0.9-10.5 2.7l0.4-2.2c-10.5-1.8-15.7-1.3-19.7-0.9c-6.1 1.3-9.6 3.1-17.1 6.6c-7 3.5-17.5 9.2-24 13.6c-6.6 4.8-8.8 8.7-10.6 12.2c-1.7 3.6-3.5 7.1-6.5 9.3c-3.1 2.1-7.9 3.9-10.5 3c-0.9 0-2.2-0.8-3.1-1.7c-1.3-0.9-3.1-2.2-5.2-1.3c-1.8 0.8-2.7 3-4.4 6.5c-0.9 1.4-1.8 3.1-2.7 4.9c-2.6 4.3-6.1 7.8-20.5 17.1c-9.2 6.1-23.7 14.9-35.9 22.3c-7.5 4.8-14.5 8.8-19.7 12.3c-14.5 9.2-17.1 11.4-17.1 18c0 2.2 0 4.8 0.4 7.4c0.5 4.4 0.9 8.8 0.5 11.8c-0.9 4.4-3.1 5.7-8.8 8.4c-5.2 2.6-12.2 6.1-21 9.6c-4.4 1.8-8.7 3.1-13.1 4.8c-4.8 1.8-9.2 3.6-12.7 4.9q-1.3 0.6-2.6 1.3c-2.2 0.9-3.5 1.3-4.4 1.3c-0.5 0-1.3-0.4-2.2-1.3c-3.1-3.1-8.3-11.8-11.9-18.8c-3.5-7-5.2-12.3-7-17.5c-1.7-4.9-3.5-10.1-4.4-17.1c-0.4-3.1-0.8-7-0.9-10.5c0-4-0.4-7.5-0.8-10.5c-0.9-4-2.2-6.2-4-7.5c-0.9-0.4-2.2-1.3-4.4-0.4c-1.3 0.4-2.2 0.8-3.5 1.7c-2.2 1.3-5.2 3.1-8.7 3.5c-5.7 0.9-14-0.8-19.3-2.6c-4.8-1.7-6.1-3-6.6-5.7c-0.4-1.3-0.9-2.6-0.9-4.3c-0.4-2.7-0.8-6.2-2.1-9.7q-2.7-7.2-9.3-15.7c-0.4-0.9-1.3-1.4-1.7-2.2c-2.6-3.5-5.3-6.2-5.7-9.2c-0.9-3.1 0.4-7 1.3-10.5l0.4-1.8c0-0.4 0.5-1.3 0.5-1.7c0.4-2.2 0.4-2.2 0.8-2.7c0.5-0.4 2.2-0.4 3.5-0.9c1.8 0 3.1-0.4 4.9-0.8c3.5-0.9 7.4-2.7 10.5-4.9c3-2.1 4.8-3.9 6.5-5.7c1.8-2.1 4-3.9 5.7-7.8c1.8-4 3.5-9.2 4.4-14.1c0.9-4.3 0.9-8.3 0.9-11.8c0-3.5 0-7.9-3.1-11.8c-2.2-3.1-5.7-5.7-9.2-8.3c-1.3-0.9-2.6-1.8-3.5-2.7c-1.3-0.8-2.2-2.1-3.5-3c-3.1-2.6-5.7-4.8-8.4-6.1c-2.6-1.4-5.2-1.8-8.3-2.2c-1.7 0-3-0.5-5.2-0.9c-2.2-0.9-5.3-1.3-10.5-3.1c0.4 0 0.4 0 0.8 0c0.5 0 1.3-0.4 1.8-0.4c0.4 0 0.9-0.4 1.3-0.4c0.4 0 1.3-0.5 1.7-0.5c0.5 0 0.9-0.4 1.4-0.4c0.4 0 1.3-0.5 1.7-0.5c0.4 0 0.9-0.4 1.3-0.4c0.5 0 1.3-0.4 1.8-0.4c0.4 0 0.9-0.5 1.3-0.5c0.9-0.4 1.7-0.9 2.2-0.9c0.4-0.4 0.4-0.4 0.9-0.4c0.8-0.4 2.1-0.9 3-1.3c9.2-3.5 19.7-8.8 25.9-12.3c6.1-3.5 7.8-5.3 9.6-7.9c1.7-2.6 3.5-6.1 5.2-11.4c1.8-5.2 3.5-12.2 8.8-18.4c5.7-6.1 14.4-11.4 24.1-18.4c10-7 20.5-15.8 30.2-21c10-5.3 18.8-7.1 25.8-6.2c7 0.9 12.3 4.4 16.7 10.5c4.3 6.6 7.9 15.3 9.6 21c1.8 5.7 1.8 8.4 28.5 13.6c5.3 10.9 13.1 16.2 18 20.6c0.4 0.4 0.4 0.8 0.8 0.8c0.5 0.5 0.5 0.5 0.5 0.5q1.3 1.3 2.6 2.6l0.4 0.4c0.9 0.9 1.8 1.4 2.2 2.2c0.9 0.9 1.4 1.3 2.2 2.2c0.5 0.9 1.3 1.8 2.2 2.2c3.5 2.6 8.8 4.4 14.9 5.3c6.2 0.8 13.2 0.8 18.4 1.7c5.3 0.9 8.8 2.6 13.2 4.4c1.7 0.8 3.5 1.3 5.7 2.1c0.4 0.5 0.4 0.5 0.8 0.5c1.8 0.4 4 1.3 5.7 1.7c1.3 0 2.2 0.5 3.1 0.9c5.3 1.8 10.1 3.5 16.6 4.4c6.6 0.8 13.6 0.8 19.8 3.5c6.1 2.6 11.3 7.8 14.9 14c3.5 6.1 5.2 13.1 7.9 16.6c2.6 3.5 6.1 3.5 10.5 4.4c4.4 0.9 9.6 2.6 13.1 5.2c3.5 2.7 5.3 6.2 6.2 8.8c0.8 2.6 0.8 4.4 0 3.9z"/>
			<path data-area="tnn" class="tainan tnn" d="m122.2 1352.1c-0.8 0.8-2.1 2.2-3 3.9c-21.1-25.8-39-43.8-50-54.7q-2-2-3.9-3.9q-0.7-0.7-1.4-1.4c-0.8-0.8-1.7-1.3-2.1-2.1c0-0.5-0.5-0.9-0.9-1.4c-0.9-0.4-1.3-1.3-1.8-1.7c-0.4-0.4-0.4-0.9-0.9-1.3c-0.4-0.9-0.8-1.3-1.3-1.8l-0.4-0.4c-2.2-3.1-3.1-5.7-4-9.6c-1.7-9.2-1.7-23.3-2.6-31.1c-0.9-7.9-2.6-9.7-4.4-11.4c-1.7-1.8-3.5-3.5-3.5-6.2c0-2.6 1.7-6.1 4.4-15.7c2.6-9.7 6.1-25.9 8.7-40.8c0.4-3 0.9-6.1 1.3-8.7c0.4-0.5 0.4-0.9 0.4-1.3q0.7-4 1.4-7.9c0.4-0.5 0.4-0.9 0.4-1.3c0-2.7 0.4-5.3 0.9-7.5c0-2.6 0.4-5.2 0.8-7.4c0-0.5 0-0.5 0-0.9l0.5 2.2c12.2-2.2 16.6-0.5 20.6 1.3h0.4c3.1 1.3 6.1 2.6 9.2 3.5c2.2 0.8 4.4 1.3 6.1 2.2l2.7 0.8c3.5 1.3 6.1 2.7 8.7 2.7c4 0 6.2-2.7 7.9-5.3c0.9-1.3 1.8-2.6 2.6-4.4c0.9-1.7 1.8-3.1 2.7-4.4c1.3-2.2 3-3.5 4.3-4.4c1.3-0.4 2.2-0.4 3.5 0c0.5 0.5 1.4 1.4 2.2 1.8c0.9 0.9 2.2 1.7 3.1 2.2c2.6 1.3 5.3 1.3 7-0.5c2.2-2.2 0.9-6.1 0.4-7.4c0-0.4 0-1.3-0.4-1.8c-0.9-1.7-1.8-4.3-1.3-5.7c0.4-1.3 1.7-2.1 3.5-3.9c1.3-1.3 3-2.6 4.8-4.4c1.7-1.7 3.9-3.9 5.7-6.1c3-3.5 6.1-7 9.2-9.7c3.5-2.6 7-4.3 10-6.1c1.8-0.9 3.1-1.8 4.9-2.6c2.2-1.3 4.3-3.1 6.1-4.4q2.6-2.6 5.2-4c3.1-1.7 6.2-1.7 9.7-1.7c3.5 0 6.6 0 10.9 0.8q2.7 0.7 5.3 1.4c3.1 0.4 6.1 1.3 7.9 1.3c2.6 0 3.5-1.3 4.4-2.2c0.4-0.5 0.4-0.9 0.8-0.9c0.5-0.4 2.2-0.9 3.5-0.9c1.3-0.4 3.1-0.4 4.8-0.9c2.2-0.4 4.4-1.3 6.6-2.2c0.9-0.4 2.2-0.8 3.1-1.3c2.2-0.4 3-0.4 3-0.4c0 0 0.5 0 0.5 0.4c0.4 1.3 1.3 3.1 3.9 5.7c1.8 1.8 4.4 4 7 6.1c3.1 2.2 6.2 4.9 8.4 7q3.3 4 5.2 6.6c1.3 1.8 2.2 3.1 3.5 4.4c2.2 1.7 4.9 3.5 7.1 4.8c0.8 0.4 1.3 0.9 2.1 1.3c2.2 1.3 3.5 3.1 4.4 4.4c0.5 1.3 0.5 2.2 0 3.5c-0.4 1.3-2.2 3.1-3.9 4.8c-2.2 2.2-4.4 4.4-4.4 7c0 2.2 1.3 3.5 2.6 5.7c0.5 0.9 1.4 2.2 2.2 3.5c2.7 4.4 6.2 11.8 8.8 16.7l6.2 12.2c1.7 3.1 3.5 6.6 4.3 9.2c0 0.9 0.5 1.3 0.5 1.8c0.9 1.7 1.3 3.9 3.5 4.8c0.9 0.4 2.6 0.9 4.4 0.9c1.7 0 3-0.5 4.3-0.9c0.9-0.5 1.8-0.9 2.2-1.8c0.9 0.9 2.2 1.3 3.1 1.3c3.1 0 3.1-3.5 3.1-5.7c0-1.3 0-2.6 1.3-4.8c1.3-1.7 3-3.9 4.8-5.2v4.8c0 1.7 0 5.2 5.7 6.5c3.1 0.9 8.8 0.9 19.7 0.9c-1.3 4-2.2 7.9-3.1 11.4q-0.6 2.6-1.3 5.3c-1.7 6.5-3 11.3-10 19.2c-4 4.4-10.1 10.1-16.2 15.8c-4.4 4.4-9.2 8.8-13.6 13.2c-6.1 6.1-11.8 12.2-16.6 17.5c-3.5 3.5-6.2 6.6-8.3 8.8c-2.2 2.2-3.5 3.5-4.9 4.4c-1.7 1.3-2.6 2.1-3.5 4.3c-0.8 3.1-0.8 8.4-0.8 12.3c0 3.5 0 4.8-0.5 6.1c-0.8 1.8-2.6 3.1-5.2 4.4c-3.1 1.8-8.3 3.5-11.8 4.4c-0.9 0-1.8 0.4-2.2 0.4c-2.2 0.5-4.4 0.9-6.2 2.7c-2.1 2.2-3.9 6.5-4.8 10.9c-0.8 4.4-0.8 10.1-0.8 13.6c0 1.8 0 4-0.5 4.4c0 0-0.8 0-1.7-0.4c-0.5-0.5-0.9-0.5-1.3-0.9c-1.8-0.9-3.5-2.2-6.2-2.2c-3.5 0-7.4 2.2-10.5 5.3c-3.5 3.5-5.2 7.8-5.7 9.6c0 0.4-0.4 1.3-0.4 1.7c-0.4 1.8-0.4 2.2-0.9 2.2c-0.4 0.5-2.2 0.9-3.9 0.9c-1.8 0.5-3.5 0.5-5.3 0.9c-1.7 0.4-3.9 0.9-6.1 1.3c-2.6 0.9-5.7 1.8-8.8 2.2c-5.2 0.9-10 0.5-12.7-0.9c-0.8-0.4-2.2-1.3-3-2.1c-1.8-1.8-4-3.5-7-4c-3.1-0.9-6.6-0.4-10.6 0c-3 0-5.6 0.5-8.7 0.5c-6.6 0-13.2-1.3-17.5-4c-1.8-1.3-3.1-2.6-4.4-3.9c-1.3-1.3-2.7-2.6-4.4-2.6c-2.6 0-4.4 2.2-6.1 5.2c-0.5 0.9-0.9 1.4-1.3 2.2c-0.5 0.5-0.5 0.9-0.9 1.3c-0.5 0-0.5 0.5-0.5 2.7z"/>
			<path data-area="hsz" class="hsinchu hsz hsc" d="m438.2 352.3c0-0.9 0-1.3 0-1.8c0.5-1.7 0.5-3.9 0.9-6.1c0.9-6.6 2.6-13.6 3.5-23.2c0.9-9.6 0.8-22.4 5.2-32c0.5-0.9 1.3-2.2 1.8-3.1c0 0 0.4-0.4 0.4-0.8c0.4-0.9 0.9-1.4 1.3-2.2c0.5 0 0.5-0.5 0.9-0.9c0.4-0.9 1.3-1.3 1.7-2.2c0-0.4 0.5-0.4 0.5-0.9l-0.9 1.8c1.8 0.9 3.1 1.3 4.4 1.7c2.2 0.9 3.1 1.3 3.5 1.8c0.4 0.4 0.4 0.9 0.9 1.7c0.8 1.8 1.7 4.4 3.9 5.7c3.1 2.2 8.8 2.2 13.6 2.2c4.4 0 7.4 0 10.9 0.9c3.6 0.8 6.6 2.6 8.8 4.8c2.2 2.2 4 5.2 4.8 8.7c0.5 1.8 0.9 3.5 0.9 4.9c0 1.7 0.5 3.5 0.9 5.2c0.9 2.2 1.7 3.5 2.6 4.8c0 0.5 0.5 1.3 0.9 1.8c0.4 1.3 0.4 2.6 0.4 4.4c0 1.3 0 2.6 0 3h-0.4c0-0.4-0.4-0.8-0.4-1.3c0-0.9-0.5-1.7-0.9-2.6c-0.9-2.2-3.1-4.4-5.3-5.3c-0.8-0.4-1.7-0.4-2.6-0.8c-0.4 0-1.3-0.5-1.3-0.5c0-0.4-0.4-0.4-0.4-0.9c-0.5-1.3-1.4-2.6-3.1-3.5c-2.2-0.8-6.6-0.8-9.7 0.1c-2.1 0.4-3.9 1.7-5.6 3c-0.9 0.5-1.4 0.9-2.2 1.3c-0.5 0.5-1.3 0.9-2.2 1.4c-2.2 1.7-4.8 3-7 5.2c-3.1 3.1-4.8 7.5-6.6 11.4c-1.7 4.8-3.5 10.1-4.4 14l-0.4 1.3c-0.4 1.8-0.9 3.1-1.7 4.9c0 0 0-0.5 0-0.9c-0.5-0.9-0.5-2.2-0.9-3.1c-0.9-2.2-1.8-3.5-2.7-4.8c0-0.4-0.4-1.3-0.8-1.7c0-0.5-0.5-1.4-0.5-1.8c-0.4-0.9-0.9-2.2-1.7-3.1c-1.8-1.7-4.8-1.7-6.6 0c-0.9 0.9-0.9 1.8-1.3 2.7c0 0.8-0.4 1.7-0.9 2.6c-0.4 0.9-1.3 1.8-2.2 2.2z"/>
			<path data-area="ila" class="ilan ila" d="m1013.2 192.9c-0.4 0-0.8 0.4-0.8 0.4l-0.5 0.5c-0.4 0.4-0.4 0.4-0.9 0.8l-0.4 0.5c-0.4 0.4-0.4 0.4-0.9 0.9c-0.4 0.4-0.4 0.4-0.8 0.8c-0.5 0.5-0.5 0.5-0.9 0.9c-0.5 0-0.5 0.4-0.9 0.9l-0.4 0.4c-0.9 1.3-2.2 2.6-3.5 4.4c-6.6 7.5-15.4 18-21.5 27.6c-6.1 10.1-9.6 18.9-12.2 25.9c-2.6 7-4.4 12.2-7 18.4c-2.6 6.1-6.1 13.1-7 17.5c-0.9 4.4 0.9 6.1 1.7 11.4c0.9 5.7 0.9 14.4 1.8 23.2c0.9 9.2 2.7 18 3.5 23.2c0.9 5.3 0.9 7 1.8 8.8c0.9 1.7 2.6 3.5 7.9 9.6c5.7 6.6 14.4 17.1 19.7 22.3c5.3 5.3 7 5.3 7.9 6.1c0.9 0.9 0.9 2.2-1.7 7.1c-2.7 4.8-7.9 11.8-10.5 19.7c-2.7 8.3-2.7 17.1-4.4 23.2c-1.8 6.1-5.3 9.6-7 14.9c-1.8 5.2-1.8 11.8-5.3 20.1c-3.4 8.4-10.5 17.1-15.7 25.9c-5.3 9.2-8.7 18-11.4 24.1c-1.7 3.5-2.6 5.7-3.5 8.3h-0.8c-4-0.9-7.5-1.3-10.6-2.2c-8.3-1.7-12.7-3-17.5-3c-4.8 0-9.2 0.4-13.1 0.9c-2.7 0-4.8 0.4-7 0.4c-4.9 0-7.9-1.7-10.1-3c-0.4-0.5-1.3-0.9-1.8-1.4c-2.2-1.3-3.5-2.6-5.7-2.6c-2.1 0-3.9 1.3-6.5 3.5c-0.9 0.9-1.3 1.3-2.2 1.8c-1.8 1.3-4 3-6.1 4.4c-2.2 1.3-4.4 3-6.2 4.3l-0.8 0.5c-2.7 2.6-4.4 3.5-9.2 3.5c-5.7 0-16.3-1.7-24.1-3.5c-7.5-1.7-12.7-3.5-16.2-5.2q-1.4-0.7-2.7-1.3c-2.2-1.4-3.9-2.2-7.4-3.1c-1.8-0.4-4-0.4-6.2-0.9c-3.5-0.4-7.8-0.8-11.3-1.7q-6-2-11.9-5.3c-1.3-0.8-3-1.7-4.4-2.6c-6.5-3.1-11.8-4.8-16.2-4.8c-3 0-5.7 0.9-8.3 1.8c-1.3 0.4-2.6 0.8-4.4 1.3c-3.9 0.9-9.2 0.9-13.5 0.9c-4 0-7.1 0-9.2-1.3c-1.8-1.4-3.6-3.6-5.7-7.5l-4-6.6c-2.2-3.9-5.3-8.3-8.3-14c0.8-0.8 1.7-2.2 3-3.5c3.1-3.5 6.6-8.7 10.5-14c2.7-3.9 5.3-7.4 7.9-11c4-4.8 7.5-8.7 10.5-12.2c1.8-2.2 3.5-4 5.3-6.2c4.8-6.1 8.3-11.4 10-15.7c1.3-3.1 2.2-7.5 0-11.9c1.8-3.9 2.2-7.9 2.6-11.8c0-0.9 0.5-2.2 0.5-3.1c0.4-5.7 2.2-10.5 7-18.8c1.7-2.6 3.5-5.7 5.7-8.8c2.6-3.9 5.2-7.9 7.8-12.2c1.8 0 3.5-0.9 5.7-1.8q1.3-0.6 2.7-1.3c3.5-1.3 7.8-3.1 12.7-4.8c4.3-1.4 8.7-3.1 13.1-4.9c8.8-3.5 16.2-7 21.5-9.6c5.6-2.6 10-4.8 10.9-11.4c0.4-3.5 0-8.3-0.5-12.7c0-2.6-0.4-5.3-0.4-7c0-4 0.4-4.8 14.9-14c5.2-3.6 12.2-7.9 19.7-12.3c12.3-7.5 26.3-16.3 35.9-22.4c15.3-9.6 18.8-13.6 21.9-18.4q1.3-2.6 2.6-5.3c0.9-1.7 1.8-3.5 2.2-4.3c0 0.4 0.4 0.4 0.9 0.8c0.8 0.9 2.6 2.2 4.8 2.7c4.4 1.3 10.5-1.4 14-4c3.9-3.1 6.1-6.6 7.9-10.5c1.7-3.1 3.5-6.6 9.2-10.5c6.1-4.4 16.6-9.7 23.6-13.2c7-3.5 10.5-5.3 15.8-6.1c3-0.5 7.4-0.5 14.4-0.9z"/>
			<path data-area="hun" class="hualien hun" d="m939 549.9q0 1.3 0 2.6c0 5.3 1.8 12.3 2.7 16.7c0.8 4.4 0.8 6.1-7 13.1c-7.9 7.5-24.1 19.8-32.9 25.9c-8.7 6.1-10.5 6.1-9.6 9.6c0.9 3.6 4.4 10.6 6.1 14.9c1.8 4.4 1.8 6.2 0.1 11.4c-1.8 5.3-5.3 14-7.9 21.1c-2.6 7-4.4 12.2-5.3 17.5q-1.3 7.9 0 15.7c0.9 5.3 2.7 10.6 3.6 14.1c0.8 3.5 0.8 5.2-1.8 10.5c-2.6 5.7-7.9 14.4-11.4 24.1c-3.4 10.1-5.2 20.6-6.9 30.2c-1.8 9.6-3.5 18.8-5.3 32.9c-1.7 14-3.5 33.2-6.9 57.3c-3.5 24.1-8.8 52.6-11.4 69.3c-2.6 17-2.6 22.3-5.2 26.2c-2.6 4-7.9 6.6-7.9 17.1c0 5.3 5.3 13.2 7.9 18.9c2.6 5.7 2.6 9.2 1.8 12.7c-0.9 3.5-2.7 7-4.4 9.6c-0.4 0.4-0.4 0.9-0.9 1.3l0.9-1.3c-10.1-7-12.3-9.2-14-10.9c-3.1-2.7-5.7-4.9-13.6-1.8c-4.8 1.8-12.3 5.7-18.8 9.2c-3.1 1.3-5.7 3.1-7.9 4c-1.8 0.9-3.1 1.7-4.4 2.2c-3.1 1.3-4.4 2.2-4.8 3.5c-0.4 1.3 0.4 2.2 0.4 2.6c0.5 1.3 1.3 2.2 2.2 3.5c1.3 1.3 3.1 3.5 4 5.3c1.3 3 1.3 6.1 1.3 8.7c0 2.6 0 4.4-0.9 6.6c0 0.9-0.4 1.7-0.9 2.6c-1.3 3.1-3.5 8.8-7.8 22.4c-6.6 18.8-17.1 52.5-22.3 70.9c-3.5 12.7-4.8 18.4-5.3 21.5c-0.4 1.3-0.4 2.2-0.8 3.1c-0.9 1.3-1.3 2.6-2.2 3.5c-0.5 0.9-0.9 1.3-1.3 2.2c-0.5 0.4-0.9 1.3-0.9 1.7c-0.4 1.3-0.4 1.8-0.9 1.8c-1.3 0.9-4.8 0.9-7.9 0.9c-3.5 0-6.5 0-14.9-4.4c-8.7-4.4-22.7-13.1-30.6-19.3c-4.4-3.9-7-6.1-8.8-8.3c-1.3-1.3-2.2-2.6-3.5-3.5c-3.5-2.6-7.9-2.2-11-1.3c-0.8 0-1.7 0.5-2.6 0.9c-1.3 0.9-2.2 1.3-3.1 0.9c-0.8 0-2.1-1.3-4.3-2.7c-2.7-2.1-6.2-4.3-11.9-7.8c-5.7-3.1-12.7-7-19.7-10.5c-6.6-3.5-14-7.5-19.3-10.5c-10.5-6.2-13.6-9.7-14.9-13.2v-0.4l-2.2 0.9l2.2-0.9c-1.3-3.5-1.3-7.9-0.4-12.3c0-1.3 0.4-2.6 0.9-3.9c0.8-2.6 1.7-5.3 0.8-7.9c-0.8-3.1-4.8-5.7-11.4-6.6c-2.6-0.4-5.7-0.8-8.7-0.8c-3.1-0.5-5.7-0.5-7.9-0.9c-4-0.9-4.8-2.6-5.3-3.9c-0.8-2.7-0.8-5.7-0.9-8.4c0-2.6 0-3.5 0.5-3.5c0.4-0.4 2.2-0.8 3.5-0.8c1.3-0.5 3.1-0.5 4.8-0.9c2.2-0.5 3.9-0.9 5.7-1.8c1.7-0.8 3.5-1.3 5.3-1.7c1.7-0.5 3-0.9 4.3-0.9c2.2-0.4 4-0.4 5.3-1.3c1.3-0.9 2.6-1.8 2.6-3.5c0-1.3-0.4-2.7-0.9-4c-0.8-1.7-3-3.9-4.8-5.7c-1.3-1.3-3.1-3-3.1-3.9c0-0.9 1.4-2.2 3.1-4.4l1.8-2.2c2.6-3 8.7-10.9 12.6-17.9c1.8-3.5 3.1-6.6 4.4-9.2c1.3-1.8 1.8-4 2.6-4.9c0.9-1.3 1.4-1.3 5.7-2.2l1.8-0.4c2.6-0.4 6.1-1.3 9.6-1.8c3.5-0.8 7-1.3 9.7-1.7l1.3-0.5c4.4-0.8 7-1.3 8.3-4.8c0.9-3 0.9-8.3 0.9-13.1c0-4.4 0-7 3-10.1c3.1-3.1 9.7-6.1 14.5-8.3l0.8-0.5c4.9-1.7 6.6-3.5 9.2-13.6c1.8-6.1 3.5-16.2 5.3-25.8c1.3-6.6 2.6-13.1 3.5-18.4c1.3-6.6 2.1-10.5 3-13.1c0.9-2.7 1.3-4.4 1.3-6.2c0-3.5-2.6-5.7-5.2-8.7c-2.7-2.7-6.6-6.6-10.1-9.2c-1.8-1.3-3.5-2.2-4.8-3.1c-1.8-1.3-3.1-2.2-4-3c-0.4-0.5-1.3-1.4 1.3-5.3c1.8-2.6 4-6.1 6.6-9.6c1.7-2.2 3.5-4.9 4.8-7.1c3.9-5.7 5.7-9.2 7.4-12.7q2.7-5.2 5.3-11.8q2.6-7.2 5.2-17.1c1.3-5.7 3.5-15.8 3.5-22.8c0-7-2.2-10.9-3.9-13.5c-2.2-2.7-4-4.9-5.7-6.6c-1.8-1.8-3.1-3.1-4-5.3c-0.4-1.7-0.9-4.8 3.5-12.2c4.4-7.9 13.1-20.2 19.3-28.1c1.7-1.7 3-3.9 4.4-5.2c3.5-4.4 5.6-7.5 6.5-10.5c0.9-3.6 0-6.6-0.9-9.2c-0.4-0.9-0.8-1.8-0.8-2.7c-0.9-3-0.9-6.5-0.1-9.6c0.9-3.5 2.7-6.1 4.9-7.5c3-1.3 7.8-1.3 11.3-1.3c2.2 0 4.4 0 5.7-1.7c1.4-1.8 0.9-4 0-5.7c-0.8-2.7-3.5-7-5.7-11.4c-1.7-3.1-3.5-6.1-4.8-9.2c-3.5-7-5.3-11.8-6.1-18c-0.9-6.1-0.9-13.1-0.9-17.5c0-4.4 0-5.2 2.2-7.4c0.8-0.9 2.2-1.8 3.5-3.1c3-2.6 7.4-6.1 12.7-11.8c6.5-7.1 14.4-16.7 29.3-35.1c0.4 0.4 1.3 0.4 1.7 0.9c4 2.2 7.9 4.3 12.7 5.7c4.4 1.3 8.4 1.7 12.3 2.1c2.2 0.5 3.9 0.5 5.7 0.9c2.6 0.4 3.9 1.3 6.1 2.6c0.9 0.9 2.2 1.3 3.1 1.8c4.4 1.7 9.6 3.5 17.5 5.2c7.5 1.8 18.9 3.5 25.4 3.5c6.2 0 8.8-2.2 11.9-4.4l0.8-0.4c1.8-1.3 4-3.1 6.2-4.4c2.2-1.3 4.3-3.1 6.1-4.4c0.9-0.9 1.7-1.3 2.2-1.7c1.3-0.9 3-2.2 3.5-2.2c0.9 0 1.7 0.8 3.1 1.7c0.8 0.5 1.3 0.9 2.1 1.3c2.7 1.8 6.6 4 12.7 4c2.2 0 4.9 0 7.5-0.5c3.9-0.4 7.9-1.3 12.3-0.9c4.3 0.5 8.7 1.3 17 3.1c3.1 0.4 6.2 1.3 10.1 2.2h0.5z"/>
		</g>
	</g>
</svg>