<svg id="Layer_1" xmlns="http://www.w3.org/2000/svg" viewBox="0 0 563.8 98.9"><style>.st0{fill:#58595B;} .st1{fill:#9D162E;} .st2{fill:#51C6DB;}</style><path class="st0" d="M31.8 98.8c85.6-8.2 172.6-12.3 260.3-12.3 88 0 174.5 4.2 260.3 12.4v-1c-85.4-10-172.3-15.4-260.3-15.4-88.1 0-174.9 5.3-260.3 15.4v.9z"/><path class="st1" d="M279.1 53.8c-.7-1.3-3.2-1.3-5.1-.7-1.8.6-4.5 1.2-5.5.5-.8-.5.5-2.6 2.1-4.9 1.2-1.9 2.7-4.3 3.8-6.7.9-2.1 1.1-3.8.5-4.9-.8-1.6-2.6-2.2-5.9-2.9-3.3-.7-9.2 2.5-15.1 5.6l-2.4 1.2c-2.6 1.3-3.3.6-5.4-2.4-2.5-3.6-7.6-2.1-11.8-.5-2.1.8-4 1.9-5.6 2.8-1.6.9-3.2 1.8-3.7 1.6-.4-.2-1.4-1-2.3-1.8-1.3-1.2-2.9-2.5-4.2-3-2.1-.9-5.4.8-10.4 3.4l-1.7.9c-4.3 2.2-9.4 5.3-13.6 7.9l-4 2.4c-3.1 1.8-5.5 1-6 .1-.5-.8 4.2-6.5 4.4-9.6.2-4-7.8-6-13.9-6.5-6.9-.6-12.8 2.5-19.6 6.8-10.3 8.2-26.2 12.1-32.1 12.4 0 0-.5 0-1.6-.2s-3.4-1.7-3.7-2.7c-.3-1 .6-2.4 1.3-2.7.7-.3 2.9-1.2 5.4-2.1 3.3-1.2 7.1-2.6 9.4-3.7 3.2-1.5 6-3.6 5.9-9 0-4.5-5.8-7.1-9.5-6.8-3.8.3-10.2 4-13.1 7-2.9 3-8.2 10.3-9 11.1-.8.8-15.2 3.6-15.4 3.5-.4 0-.7.2-.8.1.1-.3 4.1-4.3 4.8-13.3.7-9-13.7-13.9-13.7-13.9.1-.1.2-.2.3-.4.7-.9 2-2.6 2.6-6.2.9-6-3.5-11.2-8-13.9C72.1-.4 64.9.9 61.7 2l-1.9.6c-2.7.9-5.5 1.9-7.1 2.2h-.5c-.1-.1-.1-.7 0-1.2.1-.8.2-1.7-.2-2.5-1.1-2-4.2-1.1-6.9-.1-.1 0-.2.1-.3.1-4.8 8.6-21.4 30-24.3 33-1.3 1.4-4.3 5-7.5 8.9-3.8 4.6-7.8 9.4-9.6 11.2-2.3 2.3-3.7 5.6-3.4 8.1.2 1.5.9 2.7 2 3.3 2.8 1.8 5.3-1 8-3.9.7-.8 1.4-1.6 2.1-2.3C15.7 56 27 41.7 33.8 32.1c5.5-7.9 10.8-11.9 14.6-14.9.6-.5 1.2-1 1.8-1.4 3.6-2.9 10.5-5.9 16.9-7.4 5.3-1.2 6.2 1 7.3 3.8.2.3.3.7.5 1.1.5 1.3.4 3.1-.4 4.9-1 2.2-2.7 3.9-4.7 4.6-1.4.5-2.9.9-4.5 1.3-3 .7-6 1.5-8.6 3-3.8 2.2-7.5 7-6.8 11.3.1.9.6 1.6 1.3 2.1 2.3 1.7 7.4.9 10.4.4h.1c2.8-.4 7-3.4 10.1-5.6 1.1-.8 2.1-1.5 2.7-1.8 1.9-1.1 5.3-1.3 9 1.4.8.6 1.2 1.4 1.4 2.5.3 2.9-1.8 7-4.1 9.7-3.1 3.6-8.2 3.7-12.6 3.7h-.8c-2.1.1-4.7-1-6.9-1.9-3.1-1.2-5.7-2.3-7-.9-2.1 2.2-2.7 7.9-1.2 10.5 1.6 2.8 6.8 7.4 15.6 6.8 6.4-.5 11-3.8 14.1-6.2 1.2-.9 2.3-1.8 2.8-1.9 1.2-.1 3.1-.2 10-1.6 6.9-1.4 11-3 11.3-2.4 0 0 3.2 7.4 10.2 9.6 5.2 1.7 19.4-2.6 20-2.8.8-.3 1.6-.6 2.4-.8 2.2-.8 4-1.4 5.9-1.6.9-.1 2 .7 3.3 1.7 2.2 1.7 5 3.7 8.8 3.4 4.6-.4 9.3-2.7 12.7-4.5 1.2-.6 2.2-1.1 3-1.4 1.6-.7 2.3.1 3.5 1.7.5.7 1.1 1.5 1.9 2.1 2.3 2 7.5 1.2 15.8-2.6 4.5-2.1 8.9-4.7 12.4-6.8 2.1-1.2 4-2.3 5.2-3 1-.4 1.5-.5 1.6-.6 0 .3-.3 1-2.1 3-2.5 2.7-3.7 4.7-4.2 7.2-.1.6 0 1.2.3 1.5.8 1 3 1 4.9 1 2.2 0 3-.9 5-2.7l1.2-1.2c2.8-2.6 12-8.5 15.7-10.1 2.4-1.1 3.3-.7 3.6-.4.4.3.3 1.1.2 1.4-.3.9-2.5 3.4-4.2 5.2-1.9 2-2.9 3.1-3 3.6-.1.6.1 1.2.6 1.9 1 1.1 2.6 1.8 4.4 1.8 2.3 0 4.3-1.7 6.8-3.8 1.2-1 2.5-2 4-3.1 3.7-2.6 8.6-5.3 11.5-6.9l2-1.1c.8-.5 1.4-.6 1.7-.4.4.2.5 1.1.2 2.2-.2.8-.6 1.7-1.1 2.6-.8 1.6-1.8 3.5-2.1 6.4-.5 4.7 4.1 6.7 8.3 7.1 2 .2 5.4-.8 8.8-2.5 2.6-1.8 4.8-3.9 3.8-6.5zM122.5 38.9c1.4-1.3 2.9-2.4 3.4-2.7 2.7-1.7 3.9-2.1 5.9-1.5 1.3.4 1.3 1 1.4 1.8.1.7-.7 1.5-1.6 2-1.8 1-4 1.9-5.8 2.7-.2.1-6.1 2.4-6.4 1.9-.4-.8 1.6-3 3.1-4.2zm47 10.5c-2.6 1.6-8.2 4.4-10.5 5.1-1.1.2-2.2.1-2.9-.6-.4-.3-.6-.8-.5-1.3.2-1.3 2.2-4.6 6.2-6.5l1.3-.6c2.8-1.3 3.2-1.6 5.4-2.1 2.3-.5 5.4-.7 6.4-.1l.2.2c.1.9-2.7 4.2-5.6 5.9z"/><path class="st2" d="M332.8 35c-1.9-1.8-5.3-2.8-8.9-2.8-2.5 0-5.6.4-5.6 3.3 0 2.2 2.5 3.2 6.4 4.6 4.4 1.7 9.7 3.8 9.7 10 0 9.9-10.5 11.2-15.5 11.2-2.8 0-5.8-.3-8.1-.9-2.3-.6-2.8-1.7-2.8-4.7V52c2.5 1.8 6.6 2.7 9.9 2.7 4.1 0 6.1-1.1 6.1-3.7 0-2.4-2.2-3.3-7.9-5.5-3.9-1.5-8.1-3.6-8.1-9.3 0-8.4 9.5-10.5 15.2-10.5 3.4 0 6.2.6 8 1.4 1.5.8 1.7 1.7 1.7 3.7V35zm30.2-7.9h10.7c-.4 3.4-.5 8.9-.5 14.2V46c0 5.3.3 11.2.8 14.2h-6.1c-2.3 0-3.4-.8-3.8-2.3-2.9 2.2-6.1 3-9.3 3C343.4 60.9 342 54 342 49v-9.3c0-5.2-.3-9.9-.6-12.7h6.3c2.9 0 4.3 1.8 4.3 4.7v13.5c0 5.3.5 9.4 7.1 9.4 1.5 0 3-.3 4.3-.8V42c0-4.2-.1-11.5-.4-14.9zm31.5 33.2h-10.7c.4-3.4.5-8.9.5-14.2v-4.7c0-5.3-.1-11.2-.8-14.2h6.1c2.3 0 3.4.8 3.8 2.3 2.9-2.2 6.1-3 9.3-3 11.4 0 12.8 6.9 12.8 11.9v9.3c0 5.2.3 9.9.6 12.7h-6.4c-2.9 0-4.3-1.8-4.3-4.7V42.1c0-5.3-.5-9.4-7.1-9.4-1.5 0-3 .3-4.3.8v11.9c.1 4.2.1 11.4.5 14.9zm51.8-33.2c1.8 0 4.6-.1 6-.4-.3 1-1 3.7-1.5 4.8-.9 1.9-2 2.5-6.5 2.5h-3.8v11.3c0 4.2.1 11.4.5 14.9h-10.8c.4-3.4.5-10.7.5-14.9V34.1h-3.3c-2.9 0-5.5.4-6.7 1.1v-3.4c0-2.9.5-4.7 4.7-4.7h20.9zm41.8 16.3c0 11-6.3 17.9-17.8 17.9-11.4 0-17.3-6.2-17.3-17.5 0-11.2 6.2-17.7 17.7-17.7s17.4 6.1 17.4 17.3zm-25.3.1c0 7.6 2.7 11 7.9 11 5.1 0 7.6-3.4 7.6-11s-2.5-11.2-7.6-11.2c-5.2 0-7.9 3.6-7.9 11.2zm60.6 18.7c-4.1 0-5-1.5-7.5-5.2-1.4-2-5.8-9.5-6.6-11-.4-.8-.5-1.4.3-1.8 3.3-1.9 4.1-3.9 4.1-6.2 0-2.7-1-5-4.8-5-1.1 0-2.2.1-2.9.4v12.1c0 4.2.1 11.4.5 14.9H496c.4-3.3.5-8.9.5-14.2v-4.7c0-5.3-.1-11.2-.8-14.2 5 0 11.6-.3 14.7-.3 5.6 0 13 1.1 13 9.5 0 3.4-1.5 6.2-4.3 8-.5.4-.5.6 0 1.4 3.6 5.3 7.9 11.3 11.8 15.5-1.4.3-5.1.8-7.5.8zm27-11.6v.8c0 2.5.1 6.7.5 8.9h-10.8c.4-2.2.5-6.5.5-8.9v-.8c0-1.4-.4-2.8-1.5-5.1-2.4-4.8-7.7-14.1-12.3-18.3 1.8-.3 5.1-.4 7.1-.4 4.2 0 5.5 1.4 6.5 3 .9 1.4 4.4 8.4 5.6 11.3 1.4-3.3 4.2-9.1 5.5-11.2 1-1.5 2.4-3.2 6-3.2 1.7 0 4.3.1 6.4.4-3.3 2.9-9.5 13.2-12.1 17.9-1.2 2.4-1.4 3.6-1.4 5.6z"/></svg>